<?xml version="1.0" encoding="utf-8"?>
<!-- Generator: Adobe Illustrator 23.0.2, SVG Export Plug-In . SVG Version: 6.00 Build 0)  -->
<svg version="1.1" id="Layer_1" xmlns="http://www.w3.org/2000/svg" xmlns:xlink="http://www.w3.org/1999/xlink" x="0px" y="0px"
	 viewBox="0 0 192 192" style="enable-background:new 0 0 192 192;" xml:space="preserve">
<style type="text/css">
	.st0{fill:#263238;}
	.st1{fill:#FAFAFA;}
</style>
<g>
	<rect x="0" y="0.05" class="st0" width="192" height="192"/>
</g>
<g>
	<path class="st1" d="M68,132.05L68,132.05c0,15.46,12.54,28,28,28c0.82,0,1.64-0.04,2.45-0.11L68,129.49V132.05z"/>
	<polygon class="st1" points="124,96.09 110.01,110.08 124,124.07 	"/>
	<g>
		<path class="st1" d="M68,75.52v48.32l35.26,35.26c11.94-3.2,20.74-14.09,20.74-27.04v-2.33L83.98,89.7
			C77.18,86.93,71.54,81.89,68,75.52z"/>
		<path class="st1" d="M96,92.05c-1.46,0-2.9-0.11-4.32-0.3l15.5,15.5L124,90.43V75.52C118.54,85.37,108.04,92.05,96,92.05z"/>
	</g>
	<path class="st1" d="M96,32.06c-15.46,0-28,12.54-28,28c0,15.46,12.54,28,28,28c15.46,0,28-12.54,28-28
		C124,44.59,111.47,32.06,96,32.06z M96,54.05c2.21,0,4,1.79,4,4c0,2.21-1.79,4-4,4c-2.21,0-4-1.79-4-4
		C92,55.85,93.79,54.05,96,54.05z M80,58.05c0-2.21,1.79-4,4-4c2.21,0,4,1.79,4,4c0,2.21-1.79,4-4,4C81.79,62.05,80,60.26,80,58.05z
		 M110.14,74.2c-3.9,3.9-9.02,5.85-14.14,5.85c-5.12,0-10.24-1.95-14.14-5.85c-0.78-0.78-0.78-2.05,0-2.83
		c0.78-0.78,2.05-0.78,2.83,0c6.24,6.24,16.39,6.24,22.63,0c0.78-0.78,2.05-0.78,2.83,0C110.93,72.15,110.93,73.42,110.14,74.2z
		 M108,62.05c-2.21,0-4-1.79-4-4c0-2.21,1.79-4,4-4c2.21,0,4,1.79,4,4C112,60.26,110.21,62.05,108,62.05z"/>
</g>
</svg>
