<?xml version="1.0" encoding="utf-8"?>
<!-- Generator: Adobe Illustrator 23.0.2, SVG Export Plug-In . SVG Version: 6.00 Build 0)  -->
<svg version="1.1" id="Layer_1" xmlns="http://www.w3.org/2000/svg" xmlns:xlink="http://www.w3.org/1999/xlink" x="0px" y="0px"
	 viewBox="0 0 512 512" style="enable-background:new 0 0 512 512;" xml:space="preserve">
<style type="text/css">
	.st0{fill:#263238;}
	.st1{fill:#ECEFF1;}
</style>
<g>
	<rect y="0" class="st0" width="512" height="512"/>
	<g>
		<path class="st1" d="M255.85,85.26c-38.77,0-70.31,31.54-70.31,70.31c0,4.81,0.49,9.51,1.41,14.05
			c2.11,10.37,6.51,19.91,12.65,28.08c10.15,13.51,25.05,23.27,42.2,26.76c4.54,0.93,9.24,1.41,14.05,1.41
			c22.98,0,43.41-11.08,56.25-28.17c8.82-11.75,14.06-26.34,14.06-42.14C326.16,116.8,294.62,85.26,255.85,85.26z M289.49,128.72
			c6.56,0,11.87,5.31,11.87,11.87c0,6.56-5.31,11.87-11.87,11.87c-6.56,0-11.87-5.31-11.87-11.87
			C277.62,134.03,282.93,128.72,289.49,128.72z M255.85,128.72c6.56,0,11.87,5.31,11.87,11.87c0,6.56-5.31,11.87-11.87,11.87
			c-6.56,0-11.87-5.31-11.87-11.87C243.98,134.03,249.3,128.72,255.85,128.72z M222.22,128.72c6.56,0,11.87,5.31,11.87,11.87
			c0,6.56-5.31,11.87-11.87,11.87c-6.56,0-11.87-5.31-11.87-11.87C210.35,134.03,215.66,128.72,222.22,128.72z M294.38,192.61
			c-10.28,10.28-23.96,15.94-38.52,15.94c-14.57,0-28.25-5.66-38.52-15.94c-2.02-2.02-2.69-4.85-2.08-7.44
			c0.33-1.37,1-2.68,2.08-3.75c2.35-2.35,5.8-2.9,8.67-1.69c0.91,0.39,1.77,0.94,2.52,1.69c7.29,7.29,16.99,11.3,27.33,11.3
			c10.34,0,20.05-4.01,27.33-11.3c0.74-0.74,1.6-1.3,2.52-1.69c2.88-1.22,6.33-0.66,8.67,1.69c1.07,1.07,1.75,2.38,2.08,3.75
			C297.07,187.75,296.4,190.59,294.38,192.61z"/>
		<path class="st1" d="M333.77,355.11l-68.57-68.57l-11.19-11.19l-53.99-53.99c0.21,0.11,0.42,0.2,0.63,0.31
			c-3.99-3.34-7.7-7.06-11.07-11.12c-7.56,12.03-11.95,26.25-11.95,41.5c0,0.01,0,0.01,0,0.02h0v38.48v16.28l22.45,22.45
			l11.19,11.19l78.52,78.52c3.6-1.73,7.05-3.73,10.31-5.97C318.91,400.08,331.76,379.14,333.77,355.11z"/>
		<polygon class="st1" points="334.22,333.18 334.37,317.05 334.08,252.42 293.77,292.73 		"/>
		<path class="st1" d="M188.89,340.46l-11.26-11.26v19.31c0,8.18,1.26,16.06,3.59,23.46c1.72,5.47,4.03,10.66,6.84,15.54
			c13.51,23.43,38.8,39.22,67.8,39.22c5.97,0,11.76-0.69,17.34-1.96l-73.12-73.12L188.89,340.46z"/>
		<path class="st1" d="M255.85,241.71c-4.79,0-9.59-0.42-14.31-1.22l23.66,23.66l11.19,11.19l6.19,6.19l49.01-49.01
			c-0.73-2.83-1.59-5.61-2.62-8.3c-1.83-4.81-4.17-9.37-6.87-13.67C305.79,230.13,281.35,241.71,255.85,241.71z"/>
	</g>
</g>
</svg>
