<?xml version="1.0" encoding="utf-8"?>
<!-- Generator: Adobe Illustrator 23.0.2, SVG Export Plug-In . SVG Version: 6.00 Build 0)  -->
<svg version="1.1" xmlns="http://www.w3.org/2000/svg" xmlns:xlink="http://www.w3.org/1999/xlink" x="0px" y="0px"
	 viewBox="0 0 484 423" style="enable-background:new 0 0 484 423;" xml:space="preserve">
<style type="text/css">
	.st0{fill:#FFFFFF;}
	.st1{fill:#A0A60F;}
	.st2{fill:#F4413B;}
	.st3{fill:#B8BF08;}
	.st4{fill:#075EA6;}
	.st5{fill:#2294F2;}
</style>
<g id="Layer_2">
	<path class="st0" d="M66.4,253.8c0,28.4,11.5,54.1,30,72.7c18.6,18.6,44.2,30.1,72.5,30.1c28.3,0,53.9-11.5,72.5-30.1
		c18.6-18.6,30-44.3,30-72.7c0-28.4-11.5-54.1-30-72.7c-18.6-18.6-44.2-30.1-72.5-30.1c-28.3,0-53.9,11.5-72.5,30.1
		C77.9,199.7,66.4,225.4,66.4,253.8z"/>
	<path class="st0" d="M446.2,182.1c9.7-8.3,17.7-18.5,23.8-30c7.4-14.2,11.6-30.3,11.6-47.3c0-28.3-11.5-53.9-30.1-72.5
		c-18.6-18.5-44.3-30-72.7-30c-22,0-42.4,6.8-58.9,18.6l0,0c-26.4,18.6-43.7,49.2-43.7,83.9c0,8.2,0.9,16.2,2.8,23.9l0,0l0,0
		c1.1,4.8,2.6,9.4,4.4,13.9c7.7-14.1,18.6-26.2,31.7-35.4c17.1-12,37.9-19.1,60.3-19.1c31.4,0,59.6,13.7,78.8,35.5l0.3,0.3l0,0.4
		c-0.8,15.4-4.9,30-11.7,42.9c0,0,0,0,0,0l0,0c0,0,0,0,0,0c-6.8,13.1-16.3,24.4-27.7,33.5C426.5,196.5,437.1,190.1,446.2,182.1
		L446.2,182.1z"/>
</g>
<g id="Layer_1">
	<path class="st1" d="M375.9,201.9v1c28.3,0,53.9,11.5,72.5,30.1c18.6,18.6,30,44.3,30,72.7c0,28.4-11.5,54.1-30,72.7
		c-18.6,18.6-44.2,30.1-72.5,30.1c-28.3,0-53.9-11.5-72.5-30.1c-18.6-18.6-30-44.3-30-72.7c0-28.4,11.5-54.1,30-72.7
		c18.6-18.6,44.2-30.1,72.5-30.1V201.9v-1c-57.7,0-104.5,46.9-104.5,104.8c0,57.9,46.8,104.8,104.5,104.8
		c57.7,0,104.5-46.9,104.5-104.8c0-57.9-46.8-104.8-104.5-104.8V201.9z"/>
	<path d="M168.9,85.9C76.4,85.9,1.4,161.1,1.4,253.8c0,92.7,75,167.9,167.5,167.9c92.5,0,167.5-75.2,167.5-167.9
		C336.4,161.1,261.4,85.9,168.9,85.9z M168.9,357.6c-57.2,0-103.5-46.5-103.5-103.8S111.7,150,168.9,150
		c57.2,0,103.5,46.5,103.5,103.8C272.4,311.2,226.1,357.6,168.9,357.6z"/>
	<ellipse class="st2" cx="168.9" cy="253.8" rx="64" ry="64.1"/>
	<path class="st3" d="M168.9,189.7v1c17.4,0,33.1,7.1,44.5,18.5c11.4,11.4,18.5,27.2,18.5,44.6c0,17.4-7.1,33.2-18.5,44.6
		c-11.4,11.4-27.1,18.5-44.5,18.5c-17.4,0-33.1-7.1-44.5-18.5c-11.4-11.4-18.5-27.2-18.5-44.6c0-17.4,7.1-33.2,18.5-44.6
		c11.4-11.4,27.1-18.5,44.5-18.5V189.7v-1c-35.9,0-65,29.1-65,65.1c0,36,29.1,65.1,65,65.1c35.9,0,65-29.1,65-65.1
		c0-36-29.1-65.1-65-65.1V189.7z"/>
	<path class="st2" d="M168.9,85.9v1c46,0,87.6,18.7,117.7,48.9c30.1,30.2,48.8,71.9,48.8,118c0,46.1-18.6,87.8-48.8,118
		c-30.1,30.2-71.8,48.9-117.7,48.9c-46,0-87.6-18.7-117.7-48.9C21,341.6,2.4,299.9,2.4,253.8c0-46.1,18.6-87.8,48.8-118
		c30.1-30.2,71.8-48.9,117.7-48.9V85.9v-1C75.8,84.9,0.4,160.5,0.4,253.8c0,93.3,75.4,168.9,168.5,168.9
		c93.1,0,168.5-75.6,168.5-168.9c0-93.3-75.4-168.9-168.5-168.9V85.9z"/>
	<path class="st4" d="M168.9,150v1c28.3,0,53.9,11.5,72.5,30.1c18.6,18.6,30,44.3,30,72.7c0,28.4-11.5,54.1-30,72.7
		c-18.6,18.6-44.2,30.1-72.5,30.1c-28.3,0-53.9-11.5-72.5-30.1c-18.6-18.6-30-44.3-30-72.7c0-28.4,11.5-54.1,30-72.7
		c18.6-18.6,44.2-30.1,72.5-30.1V150v-1c-57.7,0-104.5,46.9-104.5,104.8c0,57.9,46.8,104.8,104.5,104.8
		c57.7,0,104.5-46.9,104.5-104.8c0-57.9-46.8-104.8-104.5-104.8V150z"/>
	<path class="st4" d="M168.9,201.9v1c28.3,0,53.9,11.5,72.5,30.1c18.6,18.6,30,44.3,30,72.7c0,28.4-11.5,54.1-30,72.7
		c-18.6,18.6-44.2,30.1-72.5,30.1c-28.3,0-53.9-11.5-72.5-30.1c-18.6-18.6-30-44.3-30-72.7c0-28.4,11.5-54.1,30-72.7
		c18.6-18.6,44.2-30.1,72.5-30.1V201.9v-1c-57.7,0-104.5,46.9-104.5,104.8c0,57.9,46.8,104.8,104.5,104.8
		c57.7,0,104.5-46.9,104.5-104.8c0-57.9-46.8-104.8-104.5-104.8V201.9z"/>
	<path class="st5" d="M168.9,98.2v1c28.3,0,53.9,11.5,72.5,30.1c18.6,18.6,30,44.3,30,72.7c0,28.4-11.5,54.1-30,72.7
		c-18.6,18.6-44.2,30.1-72.5,30.1c-28.3,0-53.9-11.5-72.5-30.1c-18.6-18.6-30-44.3-30-72.7c0-28.4,11.5-54.1,30-72.7
		c18.6-18.6,44.2-30.1,72.5-30.1V98.2v-1c-57.7,0-104.5,46.9-104.5,104.8c0,57.9,46.8,104.8,104.5,104.8
		c57.7,0,104.5-46.9,104.5-104.8c0-57.9-46.8-104.8-104.5-104.8V98.2z"/>
	<circle class="st3" cx="168.9" cy="125.6" r="23.5"/>
	<path class="st1" d="M168.9,103.1c12.4,0,22.5,10.1,22.5,22.5s-10.1,22.5-22.5,22.5s-22.5-10.1-22.5-22.5S156.5,103.1,168.9,103.1
		 M168.9,101.1c-13.5,0-24.5,11-24.5,24.5s10.9,24.5,24.5,24.5s24.5-11,24.5-24.5C193.4,112,182.4,101.1,168.9,101.1z"/>
	<path class="st3" d="M114.8,161.1c-9.1,0-17.4-5.3-21.3-13.6c-5.5-11.8-0.4-25.8,11.3-31.2c3.1-1.5,6.5-2.2,9.9-2.2
		c9.1,0,17.4,5.3,21.3,13.6c5.5,11.8,0.4,25.8-11.3,31.2C121.6,160.4,118.3,161.1,114.8,161.1z"/>
	<path class="st1" d="M114.8,113.1v2c8.7,0,16.7,5.1,20.4,13c5.2,11.3,0.4,24.7-10.9,29.9c-3,1.4-6.2,2.1-9.5,2.1
		c-8.7,0-16.7-5.1-20.4-13c-5.2-11.3-0.4-24.7,10.9-29.9c3-1.4,6.2-2.1,9.5-2.1V113.1 M114.8,113.1c-3.5,0-7,0.7-10.3,2.3
		C92.3,121.1,87,135.7,92.7,148c4.1,8.9,13,14.2,22.2,14.2c3.5,0,7-0.7,10.3-2.3c12.2-5.7,17.5-20.3,11.8-32.6
		C132.8,118.3,124,113.1,114.8,113.1z"/>
	<path class="st3" d="M70.9,194.9c-5.5,0-10.8-2-15.1-5.5c-9.9-8.3-11.2-23.2-2.9-33.1c4.5-5.3,11-8.4,18-8.4c5.5,0,10.8,2,15.1,5.5
		c9.9,8.3,11.2,23.2,2.9,33.1C84.4,191.8,77.8,194.9,70.9,194.9z"/>
	<path class="st1" d="M70.9,146.9v2c5.3,0,10.4,1.9,14.4,5.3c9.5,8,10.7,22.2,2.8,31.7c-4.3,5.1-10.6,8-17.2,8
		c-5.3,0-10.4-1.9-14.4-5.3c-9.5-8-10.7-22.2-2.8-31.7c4.3-5.1,10.6-8,17.2-8V146.9 M70.9,146.9c-7,0-13.9,3-18.7,8.8
		c-8.7,10.4-7.3,25.8,3,34.5c4.6,3.9,10.2,5.7,15.7,5.7c7,0,13.9-3,18.7-8.8c8.7-10.4,7.3-25.8-3-34.5
		C82,148.8,76.4,146.9,70.9,146.9z"/>
	<path class="st3" d="M45.3,244.2c-2,0-4.1-0.3-6.1-0.8c-12.5-3.4-19.9-16.3-16.6-28.8c2.7-10.3,12.1-17.4,22.6-17.4
		c2,0,4.1,0.3,6.1,0.8c12.5,3.4,19.9,16.3,16.6,28.8C65.2,237,55.9,244.2,45.3,244.2z"/>
	<path class="st1" d="M45.3,196.1v2c2,0,3.9,0.3,5.8,0.8c12,3.2,19.1,15.6,15.9,27.6c-2.6,9.8-11.5,16.7-21.7,16.7
		c-2,0-3.9-0.3-5.8-0.8c-12-3.2-19.1-15.6-15.9-27.6c2.6-9.8,11.5-16.7,21.7-16.7V196.1 M45.3,196.1c-10.8,0-20.7,7.2-23.6,18.2
		c-3.5,13.1,4.2,26.5,17.3,30c2.1,0.6,4.2,0.8,6.3,0.8c10.8,0,20.7-7.2,23.6-18.2c3.5-13.1-4.2-26.5-17.3-30
		C49.5,196.4,47.4,196.1,45.3,196.1z"/>
	<path class="st3" d="M42.9,299.6c-11.4,0-21.1-8.2-23.1-19.4c-2.2-12.8,6.3-25,19-27.2c1.4-0.2,2.7-0.4,4.1-0.4
		c11.4,0,21.1,8.2,23.1,19.4c2.2,12.8-6.3,25-19,27.2C45.6,299.5,44.2,299.6,42.9,299.6z"/>
	<path class="st1" d="M42.9,253.6L42.9,253.6c10.9,0,20.2,7.8,22.1,18.6c2.2,12.2-6,23.9-18.2,26.1c-1.3,0.2-2.6,0.3-3.9,0.3
		c-10.9,0-20.2-7.8-22.1-18.6c-2.2-12.2,6-23.9,18.2-26.1C40.3,253.7,41.6,253.6,42.9,253.6 M42.9,251.6c-1.4,0-2.8,0.1-4.3,0.4
		c-13.3,2.4-22.2,15.1-19.8,28.4c2.1,11.9,12.4,20.3,24.1,20.3c1.4,0,2.8-0.1,4.3-0.4c13.3-2.4,22.2-15.1,19.8-28.4
		C64.9,260,54.6,251.6,42.9,251.6z"/>
	<path class="st3" d="M64.1,350.9c-7.7,0-14.8-3.7-19.2-10c-7.4-10.6-4.8-25.3,5.8-32.8c4-2.8,8.6-4.3,13.4-4.3
		c7.7,0,14.8,3.7,19.2,10c7.4,10.6,4.8,25.3-5.8,32.7C73.6,349.5,68.9,350.9,64.1,350.9z"/>
	<path class="st1" d="M64.1,304.9L64.1,304.9c7.3,0,14.2,3.6,18.4,9.6c7.1,10.2,4.6,24.2-5.5,31.4c-3.8,2.7-8.2,4.1-12.9,4.1
		c-7.3,0-14.2-3.6-18.4-9.6c-7.1-10.2-4.6-24.2,5.5-31.4C55,306.3,59.5,304.9,64.1,304.9 M64.1,302.9c-4.8,0-9.7,1.4-14,4.4
		c-11.1,7.8-13.8,23.1-6,34.1c4.8,6.8,12.3,10.5,20.1,10.5c4.8,0,9.7-1.4,14-4.4c11.1-7.8,13.8-23.1,6-34.1
		C79.4,306.6,71.8,302.9,64.1,302.9z"/>
	<path class="st3" d="M104.9,388.5c-4.1,0-8.1-1.1-11.7-3.2c-11.2-6.5-15.1-20.9-8.6-32.1c4.2-7.3,12-11.8,20.3-11.8
		c4.1,0,8.1,1.1,11.7,3.2c11.2,6.5,15.1,20.9,8.6,32.1C121.1,383.9,113.3,388.5,104.9,388.5z"/>
	<path class="st1" d="M105,342.4L105,342.4c3.9,0,7.8,1,11.2,3c10.7,6.2,14.4,20,8.2,30.8c-4,6.9-11.5,11.3-19.5,11.3
		c-3.9,0-7.8-1-11.2-3c-10.7-6.2-14.4-20-8.2-30.8C89.5,346.7,96.9,342.4,105,342.4 M104.9,340.4c-8.5,0-16.7,4.4-21.2,12.3
		c-6.8,11.7-2.7,26.7,9,33.5c3.9,2.2,8.1,3.3,12.2,3.3c8.5,0,16.7-4.4,21.2-12.3c6.8-11.7,2.7-26.7-9-33.5
		C113.3,341.5,109.1,340.4,104.9,340.4z"/>
	<path class="st3" d="M157.8,405.1c-0.7,0-1.4,0-2.1-0.1c-12.9-1.1-22.4-12.6-21.3-25.5c1.1-12,11.3-21.5,23.3-21.5
		c0.7,0,1.4,0,2.1,0.1c12.9,1.1,22.4,12.6,21.3,25.5C180.1,395.7,169.8,405.1,157.8,405.1z"/>
	<path class="st1" d="M157.7,359.1L157.7,359.1c0.7,0,1.3,0,2,0.1c12.3,1.1,21.5,12,20.4,24.4c-1,11.5-10.8,20.6-22.3,20.6
		c-0.7,0-1.3,0-2-0.1c-12.3-1.1-21.5-12-20.4-24.4C136.4,368.1,146.2,359.1,157.7,359.1 M157.7,357.1c-12.5,0-23.2,9.6-24.3,22.4
		c-1.2,13.5,8.8,25.4,22.2,26.6c0.7,0.1,1.4,0.1,2.2,0.1c12.5,0,23.2-9.6,24.3-22.4c1.2-13.5-8.8-25.4-22.2-26.6
		C159.2,357.1,158.4,357.1,157.7,357.1z"/>
	<path class="st3" d="M212.7,397.9c-9.8,0-18.7-6.2-22-15.5c-4.4-12.2,1.9-25.7,14-30.1c2.6-0.9,5.3-1.4,8-1.4
		c9.8,0,18.7,6.2,22,15.5c4.4,12.2-1.9,25.7-14,30.1C218.1,397.4,215.4,397.9,212.7,397.9z"/>
	<path class="st1" d="M212.7,349.9v2c9.4,0,17.9,6,21.1,14.8c4.2,11.7-1.8,24.6-13.4,28.9c-2.5,0.9-5.1,1.4-7.7,1.4
		c-9.4,0-17.9-6-21.1-14.8c-4.2-11.7,1.8-24.6,13.4-28.9c2.5-0.9,5.1-1.4,7.7-1.4V349.9 M212.7,349.9c-2.8,0-5.6,0.5-8.4,1.5
		c-12.7,4.6-19.2,18.7-14.6,31.4c3.6,10,13,16.1,23,16.1c2.8,0,5.6-0.5,8.4-1.5c12.7-4.6,19.2-18.7,14.6-31.4
		C232,356,222.7,349.9,212.7,349.9z"/>
	<path class="st3" d="M259.4,368.1c-6.3,0-12.2-2.4-16.6-6.9c-9.1-9.2-9.1-24.1,0-33.3c4.4-4.4,10.3-6.9,16.6-6.9
		c6.3,0,12.2,2.4,16.6,6.9c9.1,9.2,9.1,24.1,0,33.3C271.5,365.6,265.6,368.1,259.4,368.1z"/>
	<path class="st1" d="M259.4,322c6,0,11.6,2.3,15.9,6.6c8.8,8.8,8.8,23.1,0,31.8c-4.2,4.3-9.9,6.6-15.9,6.6s-11.6-2.3-15.9-6.6
		c-8.8-8.8-8.8-23.1,0-31.8C247.8,324.4,253.4,322,259.4,322 M259.4,320c-6.3,0-12.5,2.4-17.3,7.2c-9.5,9.6-9.5,25.1,0,34.7
		c4.8,4.8,11,7.2,17.3,7.2c6.3,0,12.5-2.4,17.3-7.2c9.5-9.6,9.5-25.1,0-34.7C271.9,322.4,265.6,320,259.4,320z"/>
	<path d="M206.4,244.4c5.2,0,9.4,4.2,9.4,9.4s-4.2,9.4-9.4,9.4s-9.4-4.2-9.4-9.4S201.2,244.4,206.4,244.4z"/>
	<path d="M131.4,244.4c5.2,0,9.4,4.2,9.4,9.4s-4.2,9.4-9.4,9.4s-9.4-4.2-9.4-9.4S126.2,244.4,131.4,244.4z"/>
	<circle cx="168.9" cy="291.5" r="9.4"/>
	<path d="M168.9,206.8c5.2,0,9.4,4.2,9.4,9.4c0,5.2-4.2,9.4-9.4,9.4s-9.4-4.2-9.4-9.4C159.5,211,163.7,206.8,168.9,206.8z"/>
	<path d="M142.4,271c5.2,0,9.4,4.2,9.4,9.4s-4.2,9.4-9.4,9.4s-9.4-4.2-9.4-9.4S137.2,271,142.4,271z"/>
	<path d="M195.4,217.9c5.2,0,9.4,4.2,9.4,9.4s-4.2,9.4-9.4,9.4s-9.4-4.2-9.4-9.4S190.2,217.9,195.4,217.9z"/>
	<path d="M168.9,244.4c5.2,0,9.4,4.2,9.4,9.4s-4.2,9.4-9.4,9.4s-9.4-4.2-9.4-9.4S163.7,244.4,168.9,244.4z"/>
	<path d="M142.4,217.9c5.2,0,9.4,4.2,9.4,9.4s-4.2,9.4-9.4,9.4s-9.4-4.2-9.4-9.4S137.2,217.9,142.4,217.9z"/>
	<path d="M195.4,271c5.2,0,9.4,4.2,9.4,9.4s-4.2,9.4-9.4,9.4s-9.4-4.2-9.4-9.4S190.2,271,195.4,271z"/>
	<polygon points="164.9,113.7 173,113.7 173,137.5 170.7,137.5 170.7,115.8 165,115.8 165,113.7 	"/>
	<path d="M123.3,147.4v2.1h-16.8v-1.9l9.4-9.8c1.1-1.1,1.9-2.2,2.6-3.3c0.6-1.1,1-2,1-2.8c0-1.2-0.5-2.2-1.4-2.9
		c-0.9-0.7-2.2-1.1-3.9-1.1c-1.1,0-2.3,0.3-3.5,0.8c-1.2,0.5-2.3,1.2-3.3,2.1l-1.1-1.7c1.2-1,2.4-1.8,3.9-2.4
		c1.4-0.6,2.8-0.9,4.2-0.9c2.3,0,4.1,0.5,5.4,1.6c1.3,1,2,2.4,2,4.2c0,1.1-0.4,2.3-1.2,3.6c-0.8,1.3-1.9,2.7-3.2,4.1l-8,8.3H123.3z"
		/>
	<path d="M77.2,171.4c1.5,1.1,2.2,2.6,2.2,4.5c0,1.5-0.4,2.7-1.1,3.9c-0.7,1.1-1.8,2-3.2,2.6s-3,0.9-4.8,0.9c-1.4,0-2.9-0.2-4.3-0.6
		c-1.4-0.4-2.7-1-3.8-1.7l1.1-1.8c1,0.7,2,1.2,3.2,1.6c1.2,0.4,2.4,0.6,3.6,0.6c2.1,0,3.8-0.5,5.1-1.4c1.3-0.9,1.9-2.2,1.9-3.8
		c0-1.6-0.6-2.8-1.9-3.6c-1.2-0.8-3-1.2-5.2-1.2h-3.1v-1.5l8.1-8.2H63.4v-2.1h14.8v1.6l-8.5,8.6l1.5,0.1
		C73.8,169.7,75.8,170.3,77.2,171.4z"/>
	<polygon points="54.3,224 54.3,226.1 50.5,226.1 50.5,232.6 48.3,232.6 48.3,226.1 36.3,226.1 36.3,224.2 45.3,208.8 47.6,208.8 
		38.8,224 48.3,224 48.3,217.3 50.5,217.3 50.5,224 	"/>
	<path d="M47.4,274.2c1.3,0.6,2.3,1.4,3,2.5c0.7,1.1,1.1,2.3,1.1,3.6c0,1.6-0.4,2.9-1.1,4.1c-0.7,1.2-1.7,2.1-3.1,2.8
		c-1.3,0.6-2.9,1-4.6,1c-1.4,0-2.8-0.2-4.3-0.7s-2.9-1.1-4.1-1.9l1-1.8c1.1,0.7,2.2,1.3,3.5,1.7c1.3,0.4,2.5,0.6,3.7,0.6
		c2,0,3.5-0.5,4.7-1.5c1.2-1,1.7-2.4,1.7-4.1c0-1.5-0.6-2.8-1.7-3.7c-1.2-0.9-2.8-1.3-4.8-1.3c-0.8,0-1.9,0.1-3.1,0.2
		c-1.3,0.1-2.3,0.3-3.2,0.6v-12h14.4v2.1H38.3v7.5c0.7-0.1,1.4-0.2,2.3-0.3c0.9-0.1,1.6-0.1,2.3-0.1
		C44.6,273.3,46.1,273.6,47.4,274.2z"/>
	<path d="M68.2,317.8c-1-0.3-2-0.4-2.9-0.4c-2.4,0-4.3,0.9-5.7,2.7c-1.3,1.8-2,4.3-2,7.4c0,0.3,0,0.8,0.1,1.6
		c0.5-1.6,1.4-2.8,2.7-3.6c1.3-0.9,2.8-1.3,4.7-1.3c2.4,0,4.2,0.7,5.6,2c1.4,1.3,2.1,3.2,2.1,5.5c0,2.4-0.7,4.3-2.2,5.7
		c-1.5,1.4-3.4,2.1-5.9,2.1c-2.9,0-5.2-1-6.8-3s-2.5-4.8-2.5-8.5c0-2.5,0.4-4.7,1.2-6.6c0.8-1.9,1.9-3.4,3.4-4.4s3.2-1.5,5.2-1.5
		c1.1,0,2.2,0.1,3.4,0.4c1.2,0.3,2.3,0.7,3.3,1.2l-1,1.8C70.1,318.4,69.2,318,68.2,317.8z M61.4,326.8c-1,0.5-1.7,1.2-2.2,2.1
		c-0.5,0.9-0.8,1.8-0.8,2.8c0,0.9,0.2,1.7,0.7,2.6c0.5,0.9,1.1,1.6,2.1,2.2c0.9,0.6,2.1,0.9,3.4,0.9c1.8,0,3.3-0.5,4.4-1.6
		c1.1-1.1,1.7-2.5,1.7-4.3c0-1.7-0.5-3-1.6-4s-2.5-1.5-4.2-1.5C63.5,326,62.3,326.3,61.4,326.8z"/>
	<polygon points="96.2,353 113.6,353 113.6,354.9 102.8,376.8 100.3,376.8 111.1,355.1 98.4,355.1 98.4,358.7 96.3,358.7 96.3,353 	
		"/>
	<path d="M163.3,371.2c1.3,1,2,2.5,2,4.4c0,1.2-0.3,2.3-1,3.2c-0.7,0.9-1.7,1.6-2.9,2c1.6,0.5,2.9,1.2,3.8,2.3
		c0.9,1,1.3,2.3,1.3,3.8c0,2.1-0.8,3.8-2.3,5c-1.6,1.2-3.7,1.8-6.3,1.8c-2.7,0-4.8-0.6-6.4-1.8c-1.6-1.2-2.3-2.8-2.3-4.9
		c0-1.5,0.5-2.8,1.4-3.9c0.9-1.1,2.2-1.8,3.8-2.3c-1.3-0.5-2.3-1.2-3-2.1c-0.7-0.9-1.1-2-1.1-3.2c0-1.8,0.7-3.2,2-4.3
		c1.4-1,3.2-1.6,5.5-1.6C160.1,369.6,161.9,370.1,163.3,371.2z M153,383.1c-1.1,0.9-1.7,2-1.7,3.5c0,1.6,0.6,2.9,1.7,3.8
		c1.1,0.9,2.7,1.3,4.8,1.3c2,0,3.6-0.4,4.7-1.3c1.1-0.9,1.7-2.1,1.7-3.7c0-1.5-0.6-2.7-1.7-3.5c-1.2-0.9-2.7-1.3-4.8-1.3
		C155.7,381.9,154.1,382.3,153,383.1z M153.7,372.5c-1,0.8-1.5,1.8-1.5,3.1c0,1.3,0.5,2.4,1.5,3.2s2.3,1.2,4.1,1.2
		c1.7,0,3.1-0.4,4-1.2c0.9-0.8,1.4-1.8,1.4-3.2c0-1.4-0.5-2.4-1.4-3.1c-1-0.8-2.3-1.1-4-1.1C156,371.4,154.7,371.8,153.7,372.5z"/>
	<path d="M208.5,384c1,0.3,1.9,0.4,2.9,0.4c2.4,0,4.3-0.9,5.6-2.7s2-4.3,2-7.4c0-0.3,0-0.8-0.1-1.6c-0.5,1.6-1.4,2.8-2.7,3.6
		c-1.3,0.9-2.8,1.3-4.7,1.3c-2.3,0-4.2-0.7-5.5-2c-1.3-1.3-2-3.2-2-5.5c0-2.4,0.7-4.3,2.2-5.7c1.4-1.4,3.4-2.1,5.8-2.1
		c2.9,0,5.2,1,6.8,3c1.6,2,2.4,4.8,2.4,8.4c0,2.5-0.4,4.7-1.2,6.6c-0.8,1.9-1.9,3.4-3.4,4.4s-3.2,1.6-5.1,1.6
		c-1.1,0-2.2-0.2-3.4-0.5c-1.2-0.3-2.3-0.7-3.3-1.2l1-1.8C206.7,383.4,207.6,383.8,208.5,384z M207.9,365.9c-1.1,1-1.6,2.4-1.6,4.2
		c0,1.7,0.5,3.1,1.5,4c1,1,2.4,1.5,4.2,1.5c1.3,0,2.4-0.3,3.4-0.8s1.7-1.2,2.2-2.1c0.5-0.9,0.8-1.8,0.8-2.8c0-0.9-0.2-1.7-0.7-2.6
		c-0.5-0.9-1.1-1.6-2.1-2.1c-0.9-0.6-2-0.9-3.4-0.9C210.4,364.4,209,364.9,207.9,365.9z"/>
	<path d="M266.6,335.6c1.7,2.1,2.5,5,2.5,8.9s-0.8,6.8-2.5,8.9c-1.7,2.1-4.1,3.1-7.2,3.1c-3.1,0-5.5-1-7.2-3.1
		c-1.7-2.1-2.5-5.1-2.5-8.9c0-3.9,0.8-6.8,2.5-8.9c1.7-2.1,4.1-3.1,7.2-3.1C262.5,332.5,264.9,333.6,266.6,335.6z M253.9,337
		c-1.2,1.7-1.9,4.2-1.9,7.6c0,3.3,0.6,5.9,1.9,7.6c1.2,1.7,3.1,2.6,5.5,2.6c2.4,0,4.2-0.9,5.5-2.6c1.3-1.7,1.9-4.2,1.9-7.6
		c0-3.3-0.6-5.9-1.9-7.6c-1.3-1.7-3.1-2.6-5.5-2.6C257,334.4,255.2,335.2,253.9,337z"/>
	<circle class="st0" cx="375.9" cy="253.8" r="24.5"/>
	<path class="st1" d="M375.9,98.2v1c28.3,0,53.9,11.5,72.5,30.1c18.6,18.6,30,44.3,30,72.7c0,28.4-11.5,54.1-30,72.7
		c-18.6,18.6-44.2,30.1-72.5,30.1c-28.3,0-53.9-11.5-72.5-30.1c-18.6-18.6-30-44.3-30-72.7c0-28.4,11.5-54.1,30-72.7
		c18.6-18.6,44.2-30.1,72.5-30.1V98.2v-1c-57.7,0-104.5,46.9-104.5,104.8c0,57.9,46.8,104.8,104.5,104.8
		c57.7,0,104.5-46.9,104.5-104.8c0-57.9-46.8-104.8-104.5-104.8V98.2z"/>
	<path class="st3" d="M375.9,201.9c49.5,0,89.7,51.9,89.7,51.9s-40.2,51.9-89.7,51.9c-49.5,0-89.7-51.9-89.7-51.9
		S326.4,201.9,375.9,201.9z"/>
	<path class="st5" d="M375.9,201.9v1c12.2,0,23.9,3.2,34.5,8c15.9,7.2,29.6,18.1,39.2,27.2c4.8,4.5,8.6,8.6,11.2,11.6
		c1.3,1.5,2.3,2.7,3,3.5c0.3,0.4,0.6,0.7,0.8,0.9c0.1,0.1,0.1,0.2,0.2,0.2l0.1,0.1l0.8-0.6l-0.8-0.6c0,0,0,0-0.1,0.1
		c-1.2,1.5-11.5,14.4-27.5,26.8c-16,12.5-37.6,24.5-61.3,24.5c-12.2,0-23.9-3.2-34.5-8c-16-7.2-29.6-18.1-39.2-27.2
		c-4.8-4.5-8.6-8.6-11.2-11.6c-1.3-1.5-2.3-2.7-3-3.5c-0.3-0.4-0.6-0.7-0.8-0.9c-0.1-0.1-0.1-0.2-0.2-0.2l-0.1-0.1l-0.8,0.6l0.8,0.6
		c0,0,0,0,0.1-0.1c1.2-1.5,11.5-14.4,27.5-26.8c16-12.5,37.6-24.5,61.3-24.5V201.9v-1c-12.6,0-24.5,3.3-35.3,8.2
		c-16.2,7.4-30,18.4-39.7,27.6c-9.7,9.2-15.4,16.5-15.4,16.5l-0.5,0.6l0.5,0.6c0,0,10.1,13.1,26.4,26.1c8.2,6.5,17.9,13.1,28.7,18
		c10.8,4.9,22.8,8.2,35.3,8.2c12.6,0,24.5-3.3,35.3-8.2c16.2-7.4,30-18.4,39.7-27.6c9.7-9.2,15.4-16.5,15.4-16.5l0.5-0.6l-0.5-0.6
		c0,0-10.1-13.1-26.4-26.1c-8.2-6.5-17.9-13.1-28.7-18c-10.8-4.9-22.8-8.2-35.3-8.2V201.9z"/>
	<ellipse class="st5" cx="375.9" cy="253.8" rx="64" ry="64.1"/>
	<path class="st4" d="M375.9,189.7v1c17.4,0,33.1,7.1,44.5,18.5c11.4,11.4,18.5,27.2,18.5,44.6c0,17.4-7.1,33.2-18.5,44.6
		c-11.4,11.4-27.1,18.5-44.5,18.5c-17.4,0-33.1-7.1-44.5-18.5c-11.4-11.4-18.5-27.2-18.5-44.6c0-17.4,7.1-33.2,18.5-44.6
		c11.4-11.4,27.1-18.5,44.5-18.5V189.7v-1c-35.9,0-65,29.1-65,65.1c0,36,29.1,65.1,65,65.1c35.9,0,65-29.1,65-65.1
		c0-36-29.1-65.1-65-65.1V189.7z"/>
	<path class="st0" d="M375.9,214.2c21.8,0,39.5,17.7,39.5,39.6c0,21.9-17.7,39.6-39.5,39.6c-21.8,0-39.5-17.7-39.5-39.6
		C336.4,231.9,354.1,214.2,375.9,214.2z"/>
	<path d="M375.9,287.4c-18.5,0-33.5-15.1-33.5-33.6s15-33.6,33.5-33.6s33.5,15.1,33.5,33.6S394.3,287.4,375.9,287.4z M375.9,221.1
		c-18,0-32.7,14.7-32.7,32.8c0,18.1,14.7,32.8,32.7,32.8s32.7-14.7,32.7-32.8C408.6,235.8,393.9,221.1,375.9,221.1z"/>
	<polygon points="337.7,253.9 340.3,255.2 342.9,256.5 342.9,253.9 342.9,251.2 340.3,252.6 	"/>
	<polygon points="408.8,251.2 408.8,253.9 408.8,256.5 411.5,255.2 414.1,253.9 411.5,252.6 	"/>
	<polygon points="378.5,220.9 377.2,218.2 375.9,215.5 374.6,218.2 373.2,220.9 375.9,220.9 	"/>
	<polygon points="373.2,286.9 374.6,289.6 375.9,292.2 377.2,289.6 378.5,286.9 375.9,286.9 	"/>
	<path d="M348.1,226v55.8h55.7V226H348.1z M377.2,257.7c0,0.8-0.6,1.4-1.4,1.4s-1.4-0.6-1.4-1.4s0.6-1.4,1.4-1.4
		S377.2,257,377.2,257.7z M393,253.9v17.2l-8.5-8.6l-8.6-8.6l-8.5,8.6l-8.5,8.6V254v-17.2l8.5,8.6l1.6,1.6l-10.3,24l8.5-17.2
		l2.9-5.8l0.1-0.2l5.6-11.2l5.6,11.2l0.1,0.2l2.9,5.8L393,271l-10.2-24.2l1.6-1.6l8.5-8.6L393,253.9z"/>
	<path class="st2" d="M409.3,203.7l0.6,0.8c13.6-9.6,24.9-22.3,32.7-37.3l0,0c6.8-12.9,10.9-27.5,11.7-42.9l0-0.4l-0.3-0.3
		c-19.2-21.8-47.4-35.5-78.8-35.5c-22.4,0-43.2,7.1-60.3,19.1c-13.6,9.6-24.9,22.3-32.7,37.3l0.9,0.5l0.9-0.4
		c-2.2-5-3.9-10.4-5.1-15.8l0,0l0,0c-1.9-7.6-2.8-15.6-2.8-23.9c0-34.7,17.2-65.3,43.7-83.9l0,0c16.5-11.8,36.9-18.6,58.9-18.6
		c28.4,0,54.1,11.5,72.7,30c18.6,18.5,30.1,44.2,30.1,72.5c0,17-4.2,33.2-11.6,47.3c-6,11.5-14.1,21.7-23.8,30l0,0
		c-10.7,9.3-23.4,16.4-37.2,20.6L409.3,203.7l0.6,0.8L409.3,203.7l0.3,1c14.1-4.2,27.1-11.5,38-21l0,0c9.9-8.5,18.1-18.9,24.2-30.6
		c7.6-14.4,11.8-30.9,11.8-48.3C483.6,47,436.6,0.3,378.8,0.3c-22.4,0-43.2,7-60.1,19l0,0c-27,19-44.5,50.2-44.5,85.5
		c0,8.4,0.9,16.6,2.8,24.3l0,0c1.3,5.5,3,11,5.3,16.2l0.8,1.9l1-1.9c7.6-14.7,18.7-27.1,32.1-36.5c16.7-11.8,37.1-18.7,59.1-18.7
		c30.8,0,58.4,13.5,77.2,34.9l0.8-0.7l-1-0.1c-0.8,15.2-4.9,29.4-11.5,42.1l0,0l0,0c-7.6,14.7-18.7,27.1-32.1,36.5l-5,3.5l5.9-1.8
		L409.3,203.7z"/>
	<path class="st0" d="M446.2,182.1c9.7-8.3,17.7-18.5,23.8-30c7.4-14.2,11.6-30.3,11.6-47.3c0-28.3-11.5-53.9-30.1-72.5
		c-18.6-18.5-44.3-30-72.7-30c-22,0-42.4,6.8-58.9,18.6l0,0c-26.4,18.6-43.7,49.2-43.7,83.9c0,8.2,0.9,16.2,2.8,23.9l0,0l0,0
		c1.1,4.8,2.6,9.4,4.4,13.9c7.7-14.1,18.6-26.2,31.7-35.4c17.1-12,37.9-19.1,60.3-19.1c31.4,0,59.6,13.7,78.8,35.5l0.3,0.3l0,0.4
		c-0.8,15.4-4.9,30-11.7,42.9c0,0,0,0,0,0l0,0c0,0,0,0,0,0c-6.8,13.1-16.3,24.4-27.7,33.5C426.5,196.5,437.1,190.1,446.2,182.1
		L446.2,182.1z"/>
	<g>
		<rect x="405.8" y="5.6" width="20.1" height="20.1"/>
		<polygon points="425.9,65.8 425.9,45.7 405.8,45.7 405.8,65.8 405.8,85.9 425.9,85.9 446,85.9 446,65.8 		"/>
		<polygon points="365.8,45.8 345.9,45.8 345.9,25.8 345.9,5.7 325.8,5.7 305.7,5.7 305.7,25.8 325.8,25.8 325.8,45.8 325.7,45.8 
			325.7,65.9 325.7,86 345.8,86 345.8,65.9 365.8,65.9 365.8,86 385.9,86 385.9,65.9 385.9,45.8 385.9,25.7 365.8,25.7 		"/>
	</g>
</g>
</svg>
