<?xml version="1.0" encoding="utf-8"?>
<!-- Generator: Adobe Illustrator 23.0.2, SVG Export Plug-In . SVG Version: 6.00 Build 0)  -->
<svg version="1.1" xmlns="http://www.w3.org/2000/svg" xmlns:xlink="http://www.w3.org/1999/xlink" x="0px" y="0px"
	 viewBox="0 0 480 530" style="enable-background:new 0 0 480 530;" xml:space="preserve">
<style type="text/css">
	.st0{fill:#1A1A1A;}
	.st1{fill:#FFFFFF;}
	.st2{fill:#666666;}
	.st3{fill:#4D4D4D;}
	.st4{fill:#B3B3B3;}
</style>
<g id="Layer_2">
	<circle cx="240.1" cy="265.3" r="239.2"/>
	<circle class="st0" cx="240.1" cy="265.3" r="224"/>
	<circle class="st1" cx="437.2" cy="265.4" r="42.9"/>
	<circle class="st1" cx="43" cy="265.4" r="42.9"/>
	<path class="st2" d="M242.9,289.5c-91.2,0-165.1-56.4-165.1-125.9c0-44.7,30.5-83.9,76.5-106.3c15-34.6,42.6-56.9,88.5-56.9
		s73.5,22.3,88.5,56.9c46,22.3,76.5,61.6,76.5,106.3C408,233.1,334.1,289.5,242.9,289.5"/>
	<polygon class="st0" points="331.4,185.4 329.7,160.1 313.3,179.5 321.4,155.5 298.9,167.1 315.5,148 290.2,150.1 312.9,138.8 
		288.8,131.2 314,129.4 294.7,113.1 318.7,121.1 307,98.6 326.2,115.2 324,90 335.3,112.6 343,88.5 344.8,113.7 361.1,94.4 
		353.1,118.4 375.6,106.8 359,125.9 384.2,123.7 361.5,135.1 385.7,142.7 360.4,144.5 379.8,160.8 355.8,152.8 367.4,175.3 
		348.3,158.7 350.4,183.9 339.1,161.3 	"/>
	<circle class="st3" cx="329.7" cy="157.4" r="49.3"/>
	<polygon class="st0" points="148.8,185.4 150.5,160.1 166.9,179.5 158.8,155.5 181.3,167.1 164.7,148 190,150.1 167.3,138.8 
		191.4,131.2 166.2,129.4 185.5,113.1 161.5,121.1 173.1,98.6 154,115.2 156.2,90 144.9,112.6 137.2,88.5 135.4,113.7 119.1,94.4 
		127.1,118.4 104.6,106.8 121.2,125.9 96,123.7 118.6,135.1 94.5,142.7 119.8,144.5 100.4,160.8 124.4,152.8 112.8,175.3 
		131.9,158.7 129.8,183.9 141.1,161.3 	"/>
	<circle class="st3" cx="150.5" cy="157.4" r="49.3"/>
	<path class="st4" d="M250.3,19.8c-5.6-3.5-14.2-3.5-20.1-0.6c-7.1,3.6-13.9,8.5-19.9,11.8c-5.5,3-11.8,4.6-16.9,8.1
		s-12.1,15.7-6.1,15.9c9.6,0.2,13.9-13.2,23.5-13.5c7.9-0.2,14.1,2.6,17.4,9.7s3.6,15.3,2.8,23.1c-0.6,5.4-1.6,10.8-3.8,15.8
		c-6.9,16.2-24,25.8-40.9,30.9c-12.4,3.7-25.2,3.4-37.8,5.9c-12.4,2.5-24.2,7.6-34.8,14.5c-15.3,10.1-27.9,24.2-37,40.1
		c-6.1,10.6-10.9,22.1-19.3,31c-3.4,3.6-7.6,6.8-12.4,7.6c-6.9,1.2-14.8-10.6-19.7-5.6c37.2,80.5,120.2,139,214.7,139H240
		c94.6,0,177.5-58.5,214.7-139c-4.9-4.9-12.8,6.9-19.7,5.6c-4.9-0.9-9-4-12.4-7.6c-8.4-8.9-13.2-20.4-19.3-31
		c-9.2-15.9-21.7-30-37-40.1c-10.5-7-22.4-12-34.8-14.5c-12.6-2.6-25.3-2.2-37.8-5.9c-16.9-5.1-33.9-14.7-40.9-30.9
		c-2.1-5-3.2-10.4-3.8-15.8c-0.8-7.8-0.6-16,2.8-23.1c3.4-7.1,9.6-9.9,17.4-9.7c9.6,0.3,13.9,13.7,23.5,13.5
		c6-0.1-0.9-12.3-6.1-15.9c-5.1-3.6-11.4-5.1-16.9-8.1c-6-3.3-12.8-8.2-19.9-11.8c-5.9-3-14.5-3-20.1,0.6"/>
	<path class="st2" d="M237.3,241.2c91.2,0,165.1,56.4,165.1,125.9c0,44.7-30.5,83.9-76.5,106.3c-15,34.6-42.6,56.9-88.5,56.9
		s-73.5-22.3-88.5-56.9c-46-22.3-76.5-61.6-76.5-106.3C72.2,297.6,146.1,241.2,237.3,241.2"/>
	<polygon class="st0" points="148.8,345.3 150.5,370.5 166.9,351.2 158.8,375.2 181.3,363.6 164.7,382.7 190,380.5 167.3,391.9 
		191.4,399.5 166.2,401.3 185.5,417.6 161.5,409.6 173.1,432.1 154,415.5 156.2,440.7 144.9,418.1 137.2,442.2 135.4,416.9 
		119.1,436.3 127.1,412.3 104.6,423.9 121.2,404.8 96,406.9 118.6,395.6 94.5,388 119.8,386.2 100.4,369.9 124.4,377.9 112.8,355.4 
		131.9,372 129.8,346.8 141.1,369.4 	"/>
	<circle class="st3" cx="150.5" cy="373.3" r="49.3"/>
	<polygon class="st0" points="331.4,345.3 329.7,370.5 313.3,351.2 321.4,375.2 298.9,363.6 315.5,382.7 290.2,380.5 312.9,391.9 
		288.8,399.5 314,401.3 294.7,417.6 318.7,409.6 307,432.1 326.2,415.5 324,440.7 335.3,418.1 343,442.2 344.8,416.9 361.1,436.3 
		353.1,412.3 375.6,423.9 359,404.8 384.2,406.9 361.5,395.6 385.7,388 360.4,386.2 379.8,369.9 355.8,377.9 367.4,355.4 348.3,372 
		350.4,346.8 339.1,369.4 	"/>
	<circle class="st3" cx="329.7" cy="373.3" r="49.3"/>
	<path class="st4" d="M229.9,510.8c5.6,3.5,14.2,3.5,20.1,0.6c7.1-3.6,13.9-8.5,19.9-11.8c5.5-3,11.8-4.6,16.9-8.1
		c5.1-3.6,12.1-15.7,6.1-15.9c-9.6-0.2-13.9,13.2-23.5,13.5c-7.9,0.2-14.1-2.6-17.4-9.7c-3.4-7.1-3.6-15.3-2.8-23.1
		c0.6-5.4,1.6-10.8,3.8-15.8c6.9-16.2,24-25.8,40.9-30.9c12.4-3.7,25.2-3.4,37.8-5.9c12.4-2.5,24.2-7.6,34.8-14.5
		c15.3-10.1,27.9-24.2,37-40.1c6.1-10.6,10.9-22.1,19.3-31c3.4-3.6,7.6-6.8,12.4-7.6c6.9-1.2,14.8,10.6,19.7,5.6
		C417.6,235.5,334.6,177,240,177h0.1c-94.6,0-177.5,58.5-214.7,139c4.9,4.9,12.8-6.9,19.7-5.6c4.9,0.9,9,4,12.4,7.6
		c8.4,8.9,13.2,20.4,19.3,31c9.2,15.9,21.7,30,37,40.1c10.5,7,22.4,12,34.8,14.5c12.6,2.6,25.3,2.2,37.8,5.9
		c16.9,5.1,33.9,14.7,40.9,30.9c2.1,5,3.2,10.4,3.8,15.8c0.8,7.8,0.6,16-2.8,23.1s-9.6,9.9-17.4,9.7c-9.6-0.3-13.9-13.7-23.5-13.5
		c-6,0.1,0.9,12.3,6.1,15.9c5.1,3.6,11.4,5.1,16.9,8.1c6,3.3,12.8,8.2,19.9,11.8c5.9,3,14.5,3,20.1-0.6"/>
	<circle class="st1" cx="240.1" cy="265.3" r="134.5"/>
	<path class="st1" d="M244.2,276.9L244.2,276.9c0-2.3-1.8-4.1-4.1-4.1c-2.3,0-4.1,1.8-4.1,4.1v0c0,2.3,1.8,4.1,4.1,4.1
		C242.3,281,244.2,279.2,244.2,276.9z"/>
</g>
<g id="Layer_3">
</g>
<g id="Layer_1">
	<path class="st0" d="M334.8,265.3l-6.5-3.3l-5.1-2.6c-2.9-41.3-36-74.5-77.2-77.3l-2.5-5l-3.3-6.5l-3.3,6.5l-2.5,5
		c-41.3,2.8-74.4,36-77.3,77.3l-5.1,2.6l-6.5,3.3l6.5,3.3l5.1,2.6c2.9,41.3,36,74.5,77.3,77.3l2.5,5l3.3,6.5l3.3-6.5l2.5-5
		c41.3-2.8,74.4-36,77.2-77.3l5.1-2.6L334.8,265.3z M240.1,346c-44.4,0-80.6-36.2-80.6-80.7c0-44.5,36.1-80.7,80.6-80.7
		s80.6,36.2,80.6,80.7C320.7,309.8,284.5,346,240.1,346z"/>
	<rect x="171.6" y="196.8" class="st0" width="137.1" height="137.1"/>
	<g>
		<g>
			<polygon class="st1" points="240.1,265.3 218.9,286.6 197.7,307.8 197.7,265.3 197.7,222.9 218.9,244.1 			"/>
		</g>
		<g>
			<polygon class="st1" points="240.1,265.3 261.3,286.6 282.5,307.8 282.5,265.3 282.5,222.9 261.3,244.1 			"/>
		</g>
	</g>
	<g>
		<polygon points="240.1,264.7 218.9,286.2 197.7,307.8 197.7,307.8 223.1,247.5 223.1,247.5 		"/>
		<polygon points="240.1,264.7 261.3,286.2 282.5,307.8 282.5,307.8 257.1,247.5 257.1,247.5 		"/>
	</g>
	<g>
		<g>
			<path class="st1" d="M240.1,271.5c-1.8,0-3.3,1.5-3.3,3.3v0c0,1.8,1.5,3.3,3.3,3.3c1.8,0,3.3-1.5,3.3-3.3v0
				C243.4,273,241.9,271.5,240.1,271.5z"/>
		</g>
		<g>
			<polygon class="st1" points="282.5,307.8 261.3,265.3 240.1,222.9 218.9,265.3 197.7,307.8 240.1,265.3 			"/>
		</g>
	</g>
</g>
</svg>
