<?xml version="1.0" encoding="utf-8"?>
<!-- Generator: Adobe Illustrator 23.0.2, SVG Export Plug-In . SVG Version: 6.00 Build 0)  -->
<svg version="1.1" id="Layer_1" xmlns="http://www.w3.org/2000/svg" xmlns:xlink="http://www.w3.org/1999/xlink" x="0px" y="0px"
	 viewBox="0 0 377.1 609.9" style="enable-background:new 0 0 377.1 609.9;" xml:space="preserve">
<style type="text/css">
	.st0{fill:none;stroke:#000000;stroke-linejoin:round;stroke-miterlimit:10;}
	.st1{fill:#CCCCCC;stroke:#F1000D;stroke-linejoin:round;stroke-miterlimit:10;stroke-dasharray:12,4;}
	.st2{fill:#B3B3B3;stroke:#000000;stroke-linejoin:round;stroke-miterlimit:10;}
	.st3{fill:#CCCCCC;}
	.st4{fill:none;stroke:#F1000D;stroke-linejoin:round;}
	.st5{fill:none;stroke:#F1000D;stroke-linejoin:round;stroke-dasharray:12.0623,4.0208;}
	.st6{fill:none;stroke:#F1000D;stroke-linejoin:round;stroke-dasharray:11.9945,3.9982;}
	.st7{fill:none;stroke:#F1000D;stroke-linejoin:round;stroke-dasharray:11.9891,3.9964;}
	.st8{font-family:'Montserrat-Regular';}
	.st9{font-size:12px;}
	.st10{fill:none;stroke:#F1000D;stroke-linejoin:round;stroke-dasharray:11.0144,3.6715;}
	.st11{fill:none;stroke:#0000FF;stroke-linejoin:round;stroke-miterlimit:10;}
</style>
<g>
	<rect x="110.4" y="432.2" class="st0" width="33.9" height="33.9"/>
	<g>
		<polyline class="st0" points="138.4,432.2 144.4,432.2 144.4,438.2 		"/>
		<line class="st0" x1="144.4" y1="442.5" x2="144.4" y2="457.8"/>
		<polyline class="st0" points="144.4,460 144.4,466 138.4,466 		"/>
		<line class="st0" x1="134.1" y1="466" x2="118.7" y2="466"/>
		<polyline class="st0" points="116.4,466 110.4,466 110.4,460 		"/>
		<line class="st0" x1="110.4" y1="455.7" x2="110.4" y2="440.3"/>
		<polyline class="st0" points="110.4,438.2 110.4,432.2 116.4,432.2 		"/>
		<line class="st0" x1="120.9" y1="432.2" x2="136.3" y2="432.2"/>
	</g>
</g>
<rect x="0.6" y="0.6" class="st0" width="376.6" height="609.4"/>
<rect x="0.6" y="0.6" class="st0" width="376.6" height="376.6"/>
<rect x="0.5" y="377.2" class="st0" width="88.9" height="88.9"/>
<rect x="89.3" y="445" class="st1" width="21.1" height="21.1"/>
<rect x="0.4" y="0.6" class="st0" width="143.9" height="74.8"/>
<path class="st1" d="M95.6,444.2L95.6,444.2c3.1,0,5.6-2.5,5.6-5.6s-2.5-5.6-5.6-5.6l0,0c-3.1,0-5.6,2.5-5.6,5.6
	C89.9,441.7,92.4,444.2,95.6,444.2z"/>
<rect x="144.4" y="377.2" class="st1" width="232.8" height="232.8"/>
<rect x="0.4" y="233.4" class="st2" width="143.9" height="143.9"/>
<rect x="89.4" y="377.2" class="st1" width="55" height="55"/>
<g>
	<polygon class="st3" points="72.5,233.3 108.5,305.2 144.5,377.1 72.5,377.1 0.5,377.1 36.5,305.2 	"/>
	<g>
		<polyline class="st4" points="69.8,238.7 72.5,233.3 75.2,238.7 		"/>
		<polyline class="st5" points="77,242.3 108.5,305.2 140.9,369.9 		"/>
		<polyline class="st4" points="141.8,371.7 144.5,377.1 138.5,377.1 		"/>
		<polyline class="st6" points="134.5,377.1 72.5,377.1 8.5,377.1 		"/>
		<polyline class="st4" points="6.5,377.1 0.5,377.1 3.2,371.7 		"/>
		<polyline class="st5" points="5,368.1 36.5,305.2 68.9,240.5 		"/>
	</g>
</g>
<g>
	<rect x="0.4" y="466" class="st3" width="143.9" height="143.9"/>
	<g>
		<polyline class="st4" points="138.4,466 144.4,466 144.4,472 		"/>
		<line class="st7" x1="144.4" y1="476" x2="144.4" y2="602"/>
		<polyline class="st4" points="144.4,604 144.4,610 138.4,610 		"/>
		<line class="st7" x1="134.4" y1="610" x2="8.6" y2="610"/>
		<polyline class="st4" points="6.6,610 0.6,610 0.6,604 		"/>
		<line class="st7" x1="0.6" y1="600" x2="0.6" y2="474"/>
		<polyline class="st4" points="0.6,472 0.6,466 6.6,466 		"/>
		<line class="st7" x1="10.6" y1="466" x2="136.4" y2="466"/>
	</g>
</g>
<text transform="matrix(1 0 0 1 247.2395 494.2879)" class="st8 st9">1</text>
<text transform="matrix(1 0 0 1 66.3643 541.0157)" class="st8 st9">2</text>
<text transform="matrix(1 0 0 1 113.3129 408.1729)" class="st8 st9">3</text>
<text transform="matrix(1 0 0 1 96.3295 457.8646)" class="st8 st9">4</text>
<text transform="matrix(1 0 0 1 92.2051 443.3851)" class="st8 st9">5</text>
<text transform="matrix(1 0 0 1 67.6866 310.6391)" class="st8 st9">7</text>
<g>
	<rect x="0.6" y="0.7" class="st2" width="143.9" height="143.9"/>
	<rect x="0.4" y="0.7" class="st0" width="74.5" height="143.9"/>
	<g>
		<polygon class="st3" points="75.4,72.6 38,108.5 0.6,144.5 0.6,72.6 0.6,0.6 38,36.6 		"/>
		<g>
			<polyline class="st4" points="71.1,68.4 75.4,72.6 71.1,76.7 			"/>
			<polyline class="st10" points="68.4,79.3 38,108.5 6.2,139.1 			"/>
			<polyline class="st4" points="4.9,140.4 0.6,144.5 0.6,138.5 			"/>
			<polyline class="st6" points="0.6,134.5 0.6,72.6 0.6,8.6 			"/>
			<polyline class="st4" points="0.6,6.6 0.6,0.6 4.9,4.8 			"/>
			<polyline class="st10" points="7.6,7.3 38,36.6 69.7,67.1 			"/>
		</g>
	</g>
</g>
<text transform="matrix(1 0 0 1 27.5948 77.9891)" class="st8 st9">6</text>
<g>
	<path class="st11" d="M0.6,0.6c208,0,376.6,168.6,376.6,376.6"/>
	<path class="st11" d="M377.1,377.3c0,128.4-104.2,232.5-232.6,232.5"/>
	<path class="st11" d="M144.3,609.8C65,609.8,0.8,545.6,0.8,466.3"/>
	<path class="st11" d="M0.7,465.8c0-48.8,39.6-88.4,88.5-88.4"/>
	<path class="st11" d="M89.7,377.5c30.1,0,54.5,24.4,54.5,54.4"/>
	<path class="st11" d="M144.2,432.5c0,18.5-15,33.4-33.5,33.4"/>
	<path class="st11" d="M110.1,465.7c-11.1,0-20.1-9.1-20.1-20.3"/>
</g>
</svg>
