<?xml version="1.0" encoding="utf-8"?>
<!-- Generator: Adobe Illustrator 23.0.2, SVG Export Plug-In . SVG Version: 6.00 Build 0)  -->
<svg version="1.1" id="Layer_1" xmlns="http://www.w3.org/2000/svg" xmlns:xlink="http://www.w3.org/1999/xlink" x="0px" y="0px"
	 viewBox="0 0 319.7 319.7" style="enable-background:new 0 0 319.7 319.7;" xml:space="preserve">
<style type="text/css">
	.st0{fill:#FFFFFF;}
	.st1{fill:none;stroke:#000000;stroke-width:3.236;stroke-miterlimit:10;}
</style>
<g>
	<rect x="44.1" y="44.1" width="231.4" height="231.4"/>
	<g>
		<g>
			<polygon class="st0" points="159.8,159.8 124,195.7 88.2,231.5 88.2,159.8 88.2,88.2 124,124 			"/>
		</g>
		<g>
			<polygon class="st0" points="159.8,159.8 195.6,195.7 231.4,231.5 231.4,159.8 231.4,88.2 195.6,124 			"/>
		</g>
	</g>
	<ellipse class="st1" cx="159.8" cy="159.8" rx="138.3" ry="138.5"/>
	<g>
		<g>
			<g>
				<path d="M21,150.4v9.4v9.4l-9.6-4.8l-9.2-4.6l9.2-4.6L21,150.4 M22,148.8l-11,5.5l-11,5.5l11,5.5l11,5.5v-11V148.8L22,148.8z"/>
			</g>
			<g>
				<path d="M298.6,150.4l9.6,4.8l9.2,4.6l-9.2,4.6l-9.6,4.8v-9.4V150.4 M297.6,148.8v11v11l11-5.5l11-5.5l-11-5.5L297.6,148.8
					L297.6,148.8z"/>
			</g>
		</g>
		<g>
			<g>
				<path d="M159.8,2.2l4.6,9.2l4.8,9.6h-9.4h-9.4l4.8-9.6L159.8,2.2 M159.8,0l-5.5,11l-5.5,11h11h11l-5.5-11L159.8,0L159.8,0z"/>
			</g>
			<g>
				<path d="M169.2,298.6l-4.8,9.6l-4.6,9.2l-4.6-9.2l-4.8-9.6h9.4H169.2 M170.9,297.6h-11h-11l5.5,11l5.5,11l5.5-11L170.9,297.6
					L170.9,297.6z"/>
			</g>
		</g>
	</g>
	<g>
		<polygon points="159.8,158.7 124,195.1 88.2,231.5 88.2,231.5 131.2,129.7 131.2,129.7 		"/>
		<polygon points="159.8,158.7 195.6,195.1 231.4,231.5 231.4,231.5 188.5,129.7 188.5,129.7 		"/>
	</g>
	<g>
		<g>
			<path class="st0" d="M159.8,170.2c-3.1,0-5.6,2.5-5.6,5.6l0,0c0,3.1,2.5,5.6,5.6,5.6c3.1,0,5.6-2.5,5.6-5.6l0,0
				C165.5,172.7,162.9,170.2,159.8,170.2z"/>
		</g>
		<g>
			<polygon class="st0" points="231.4,231.5 195.6,159.8 159.8,88.2 124,159.8 88.2,231.5 159.8,159.8 			"/>
		</g>
	</g>
	<path class="st0" d="M165.5,175.8L165.5,175.8c0-3.1-2.5-5.6-5.6-5.6c-3.1,0-5.6,2.5-5.6,5.6l0,0c0,3.1,2.5,5.6,5.6,5.6
		S165.5,178.9,165.5,175.8z"/>
	<polygon points="0,159.8 11,165.3 22,170.9 22,159.8 22,148.8 11,154.3 	"/>
	<polygon points="297.6,148.8 297.6,159.8 297.6,170.9 308.6,165.3 319.7,159.8 308.6,154.3 	"/>
	<polygon points="170.9,22.1 165.3,11 159.8,0 154.3,11 148.8,22.1 159.8,22.1 	"/>
	<polygon points="148.8,297.6 154.3,308.6 159.8,319.7 165.3,308.6 170.9,297.6 159.8,297.6 	"/>
</g>
</svg>
