<?xml version="1.0" encoding="utf-8"?>
<!-- Generator: Adobe Illustrator 23.0.2, SVG Export Plug-In . SVG Version: 6.00 Build 0)  -->
<svg version="1.1" id="Layer_1" xmlns="http://www.w3.org/2000/svg" xmlns:xlink="http://www.w3.org/1999/xlink" x="0px" y="0px"
	 viewBox="0 0 377 410" style="enable-background:new 0 0 377 410;" xml:space="preserve">
<style type="text/css">
	.st0{fill:#FFFFFF;}
	.st1{fill:none;stroke:#000000;stroke-width:3.236;stroke-miterlimit:10;}
</style>
<g>
	<g>
		<rect x="72.76" y="44.12" width="231.44" height="231.44"/>
		<g>
			<g>
				<polygon class="st0" points="188.48,159.83 152.67,195.65 116.86,231.46 116.86,159.83 116.86,88.21 152.67,124.02 				"/>
			</g>
			<g>
				<polygon class="st0" points="188.48,159.83 224.29,195.65 260.1,231.46 260.1,159.83 260.1,88.21 224.29,124.02 				"/>
			</g>
		</g>
		<ellipse class="st1" cx="188.48" cy="159.83" rx="138.29" ry="138.48"/>
		<g>
			<g>
				<g>
					<path d="M49.71,150.43v9.41v9.41l-9.58-4.79l-9.23-4.62l9.23-4.62L49.71,150.43 M50.71,148.81l-11.02,5.51l-11.02,5.51
						l11.02,5.51l11.02,5.51v-11.02V148.81L50.71,148.81z"/>
				</g>
				<g>
					<path d="M327.29,150.43l9.58,4.79l9.23,4.62l-9.23,4.62l-9.58,4.79v-9.41V150.43 M326.29,148.81v11.02v11.02l11.02-5.51
						l11.02-5.51l-11.02-5.51L326.29,148.81L326.29,148.81z"/>
				</g>
			</g>
			<g>
				<g>
					<path d="M188.5,2.24l4.62,9.23l4.79,9.58h-9.41h-9.41l4.79-9.58L188.5,2.24 M188.5,0l-5.51,11.02l-5.51,11.02h11.02h11.02
						l-5.51-11.02L188.5,0L188.5,0z"/>
				</g>
				<g>
					<path d="M197.91,298.62l-4.79,9.58l-4.62,9.23l-4.62-9.23l-4.79-9.58h9.41H197.91 M199.52,297.62H188.5h-11.02l5.51,11.02
						l5.51,11.02l5.51-11.02L199.52,297.62L199.52,297.62z"/>
				</g>
			</g>
		</g>
		<g>
			<polygon points="188.48,158.74 152.67,195.1 116.86,231.46 116.86,231.46 159.82,129.65 159.82,129.65 			"/>
			<polygon points="188.48,158.74 224.29,195.1 260.1,231.46 260.1,231.46 217.14,129.65 217.14,129.65 			"/>
		</g>
		<g>
			<g>
				<path class="st0" d="M188.5,170.2c-3.1,0-5.62,2.52-5.62,5.62v0c0,3.1,2.52,5.62,5.62,5.62c3.1,0,5.62-2.52,5.62-5.62v0
					C194.12,172.71,191.6,170.2,188.5,170.2z"/>
			</g>
			<g>
				<polygon class="st0" points="260.1,231.46 224.29,159.83 188.48,88.21 152.67,159.83 116.86,231.46 188.48,159.83 				"/>
			</g>
		</g>
		<path class="st0" d="M194.12,175.82L194.12,175.82c0-3.1-2.52-5.62-5.62-5.62c-3.1,0-5.62,2.52-5.62,5.62v0
			c0,3.1,2.52,5.62,5.62,5.62C191.6,181.44,194.12,178.92,194.12,175.82z"/>
		<polygon points="28.67,159.83 39.69,165.35 50.71,170.86 50.71,159.83 50.71,148.81 39.69,154.32 		"/>
		<polygon points="326.29,148.81 326.29,159.83 326.29,170.86 337.31,165.35 348.33,159.83 337.31,154.32 		"/>
		<polygon points="199.52,22.05 194.01,11.02 188.5,0 182.99,11.02 177.48,22.05 188.5,22.05 		"/>
		<polygon points="177.48,297.62 182.99,308.65 188.5,319.67 194.01,308.65 199.52,297.62 188.5,297.62 		"/>
	</g>
	<g>
		<g>
			<path d="M0,331.09h4.27l13.61,26.08l13.46-26.08h4.27v34.77h-3.18l-0.05-30.01l-13.61,26.28h-1.89L3.23,335.86v30.01H0V331.09z"
				/>
			<path d="M46,331.14h3.43v34.72H46V331.14z"/>
			<path d="M59.81,331.14h3.43v31.65h15.3v3.08H59.81V331.14z"/>
			<path d="M107.08,333.2c2.77,1.57,4.96,3.7,6.58,6.38c1.62,2.68,2.43,5.63,2.43,8.84s-0.81,6.18-2.43,8.89
				c-1.62,2.72-3.82,4.87-6.58,6.46c-2.77,1.59-5.8,2.38-9.12,2.38c-3.31,0-6.35-0.8-9.12-2.38c-2.77-1.59-4.96-3.74-6.58-6.46
				c-1.62-2.72-2.43-5.68-2.43-8.89s0.81-6.16,2.43-8.84c1.62-2.68,3.82-4.81,6.58-6.38c2.77-1.57,5.8-2.36,9.12-2.36
				C101.27,330.84,104.31,331.63,107.08,333.2z M90.66,335.86c-2.25,1.29-4.04,3.05-5.37,5.27c-1.33,2.22-1.99,4.65-1.99,7.3
				s0.66,5.1,1.99,7.35c1.32,2.25,3.11,4.03,5.37,5.34c2.25,1.31,4.7,1.96,7.35,1.96c2.62,0,5.04-0.65,7.28-1.96
				c2.24-1.31,4.02-3.09,5.34-5.34c1.32-2.25,1.99-4.7,1.99-7.35s-0.66-5.08-1.99-7.3c-1.33-2.22-3.1-3.97-5.34-5.27
				c-2.24-1.29-4.66-1.94-7.28-1.94C95.36,333.92,92.91,334.57,90.66,335.86z"/>
			<path d="M138.1,334.74c-1.69-0.48-3.28-0.72-4.77-0.72c-2.38,0-4.3,0.47-5.74,1.41c-1.44,0.94-2.16,2.23-2.16,3.85
				c0,1.42,0.4,2.58,1.19,3.48c0.8,0.89,1.77,1.6,2.93,2.11c1.16,0.51,2.75,1.09,4.77,1.71c2.35,0.7,4.25,1.38,5.69,2.06
				c1.44,0.68,2.67,1.66,3.68,2.96c1.01,1.29,1.52,3,1.52,5.12c0,1.86-0.52,3.49-1.56,4.92c-1.04,1.42-2.51,2.53-4.4,3.3
				c-1.89,0.78-4.06,1.17-6.51,1.17c-2.42,0-4.78-0.48-7.08-1.44c-2.3-0.96-4.28-2.23-5.94-3.82l1.59-2.83
				c1.56,1.52,3.36,2.72,5.42,3.58c2.05,0.86,4.07,1.29,6.06,1.29c2.65,0,4.75-0.54,6.31-1.62c1.56-1.08,2.34-2.52,2.34-4.35
				c0-1.46-0.4-2.65-1.19-3.58c-0.79-0.93-1.77-1.64-2.93-2.14c-1.16-0.5-2.78-1.08-4.87-1.74c-2.35-0.73-4.24-1.42-5.66-2.06
				c-1.43-0.65-2.63-1.61-3.63-2.88c-0.99-1.27-1.49-2.94-1.49-4.99c0-1.75,0.5-3.29,1.49-4.62c0.99-1.32,2.38-2.34,4.17-3.06
				c1.79-0.71,3.86-1.07,6.21-1.07c1.89,0,3.78,0.28,5.69,0.84c1.9,0.56,3.58,1.31,5.04,2.24l-1.49,2.93
				C141.34,335.91,139.79,335.22,138.1,334.74z"/>
			<path d="M179.3,365.86l-4.12-9.24h-19.28l-4.07,9.24h-3.68l15.65-34.72h3.58l15.65,34.72H179.3z M157.25,353.54h16.59
				l-8.35-18.78L157.25,353.54z"/>
			<path d="M180.89,331.14h3.68l12.37,30.95l12.32-30.95h3.63l-14.26,34.72h-3.58L180.89,331.14z"/>
			<path d="M218.51,331.14h3.43v31.65h15.3v3.08h-18.73V331.14z"/>
			<path d="M257.03,363.31c-1.71,1.81-4.08,2.71-7.13,2.71c-1.85,0-3.59-0.42-5.22-1.27c-1.62-0.84-3.03-2.06-4.22-3.65l1.74-2.58
				c1.06,1.36,2.25,2.39,3.58,3.1c1.33,0.71,2.68,1.07,4.07,1.07c2.02,0,3.57-0.61,4.65-1.84c1.08-1.22,1.61-3,1.61-5.32v-21.31
				h-12.52v-3.13h16v24.54C259.59,358.94,258.74,361.5,257.03,363.31z"/>
			<path d="M269.55,331.14h23.25v3.08h-19.82v12.42h17.73v3.08h-17.73v13.07h20.47v3.08h-23.89V331.14z"/>
			<path d="M297.53,331.14h3.68l12.37,30.95l12.32-30.95h3.63l-14.26,34.72h-3.58L297.53,331.14z"/>
			<path d="M335.14,331.14h3.43v34.72h-3.43V331.14z"/>
			<path d="M370.09,335.01c-1.82-0.76-3.71-1.14-5.66-1.14c-2.68,0-5.14,0.65-7.38,1.94c-2.24,1.29-4.01,3.06-5.32,5.29
				c-1.31,2.24-1.96,4.68-1.96,7.33s0.65,5.08,1.96,7.3c1.31,2.22,3.08,3.98,5.32,5.29c2.24,1.31,4.69,1.96,7.38,1.96
				c1.92,0,3.79-0.37,5.61-1.12c1.82-0.74,3.44-1.78,4.87-3.1L377,361c-1.72,1.59-3.69,2.85-5.91,3.78s-4.49,1.39-6.81,1.39
				c-3.28,0-6.29-0.8-9.04-2.38c-2.75-1.59-4.93-3.74-6.53-6.46c-1.61-2.72-2.41-5.68-2.41-8.89s0.81-6.16,2.43-8.84
				c1.62-2.68,3.82-4.81,6.58-6.38c2.77-1.57,5.79-2.36,9.07-2.36c2.35,0,4.62,0.44,6.81,1.32c2.19,0.88,4.11,2.1,5.76,3.65
				l-2.04,2.38C373.52,336.84,371.92,335.78,370.09,335.01z M368.5,321.3l3.43,1.49l-6.26,4.97l-2.98-0.35L368.5,321.3z"/>
		</g>
		<g>
			<path d="M92.7,410.34l-2.75-6.16H77.09l-2.72,6.16h-2.45l10.43-23.15h2.39l10.43,23.15H92.7z M77.99,402.13h11.06l-5.57-12.52
				L77.99,402.13z"/>
			<path d="M99.99,387.19h2.29v21.1h10.2v2.05H99.99V387.19z"/>
			<path d="M117.65,387.19h15.5v2.05h-13.22v8.28h11.83v2.05h-11.83v8.71h13.65v2.05h-15.93V387.19z"/>
			<path d="M157.96,410.34h-2.81l-8.78-11.26l-4.7,5.1v6.16h-2.29v-23.19h2.29v14.11l12.85-14.11h2.78l-9.31,10.14L157.96,410.34z"
				/>
			<path d="M173.04,389.59c-1.13-0.32-2.19-0.48-3.18-0.48c-1.59,0-2.86,0.31-3.83,0.94c-0.96,0.63-1.44,1.49-1.44,2.57
				c0,0.95,0.26,1.72,0.8,2.32c0.53,0.6,1.18,1.07,1.95,1.41c0.77,0.34,1.83,0.72,3.18,1.14c1.57,0.46,2.83,0.92,3.79,1.37
				c0.96,0.45,1.78,1.11,2.45,1.97c0.67,0.86,1.01,2,1.01,3.41c0,1.24-0.35,2.33-1.04,3.28c-0.7,0.95-1.67,1.68-2.93,2.2
				c-1.26,0.52-2.71,0.78-4.34,0.78c-1.61,0-3.18-0.32-4.72-0.96c-1.54-0.64-2.85-1.49-3.96-2.55l1.06-1.89
				c1.04,1.02,2.24,1.81,3.61,2.38c1.37,0.58,2.72,0.86,4.04,0.86c1.77,0,3.17-0.36,4.21-1.08c1.04-0.72,1.56-1.68,1.56-2.9
				c0-0.97-0.26-1.77-0.8-2.38c-0.53-0.62-1.18-1.09-1.95-1.42c-0.77-0.33-1.85-0.72-3.25-1.16c-1.57-0.49-2.83-0.94-3.78-1.37
				c-0.95-0.43-1.75-1.07-2.42-1.92c-0.66-0.85-0.99-1.96-0.99-3.33c0-1.17,0.33-2.2,0.99-3.08c0.66-0.88,1.59-1.56,2.78-2.04
				c1.19-0.47,2.57-0.71,4.14-0.71c1.26,0,2.52,0.19,3.79,0.56c1.27,0.38,2.39,0.87,3.36,1.49l-0.99,1.95
				C175.2,390.37,174.16,389.91,173.04,389.59z"/>
			<path d="M201.61,410.34l-2.75-6.16h-12.85l-2.72,6.16h-2.45l10.43-23.15h2.39l10.43,23.15H201.61z M186.91,402.13h11.06
				l-5.57-12.52L186.91,402.13z"/>
			<path d="M225.7,387.19h2.25v23.15h-2.42l-14.34-19.61v19.61h-2.29v-23.15h2.42l14.38,19.61V387.19z"/>
			<path d="M251.38,388.71c1.82,1.02,3.26,2.41,4.31,4.19c1.05,1.78,1.57,3.74,1.57,5.88c0,2.14-0.53,4.1-1.57,5.86
				c-1.05,1.77-2.49,3.16-4.32,4.17c-1.83,1.01-3.86,1.52-6.09,1.52h-9.24v-23.15h9.31C247.54,387.19,249.56,387.7,251.38,388.71z
				 M250.21,407.03c1.46-0.84,2.61-1.98,3.46-3.43c0.85-1.45,1.28-3.05,1.28-4.82c0-1.77-0.43-3.38-1.29-4.84
				c-0.86-1.46-2.03-2.61-3.49-3.45c-1.47-0.84-3.09-1.26-4.85-1.26h-6.99v19.05h7.09C247.15,408.29,248.75,407.87,250.21,407.03z"
				/>
			<path d="M279.86,410.34l-2.75-6.16h-12.85l-2.72,6.16h-2.45l10.43-23.15h2.39l10.43,23.15H279.86z M265.15,402.13h11.06
				l-5.57-12.52L265.15,402.13z"/>
			<path d="M302.42,410.34l-5-7.55c-0.71,0.04-1.25,0.07-1.62,0.07h-6.36v7.49h-2.29v-23.15h8.65c2.89,0,5.13,0.67,6.71,2
				c1.58,1.34,2.37,3.23,2.37,5.68c0,1.92-0.46,3.52-1.39,4.8c-0.93,1.28-2.25,2.17-3.97,2.68l5.57,7.98H302.42z M295.8,400.8
				c2.21,0,3.91-0.5,5.1-1.51c1.19-1,1.79-2.46,1.79-4.36c0-1.85-0.6-3.27-1.79-4.24c-1.19-0.97-2.89-1.46-5.1-1.46h-6.36v11.56
				H295.8z"/>
		</g>
	</g>
</g>
</svg>
