<?xml version="1.0" encoding="utf-8"?>
<!-- Generator: Adobe Illustrator 23.0.2, SVG Export Plug-In . SVG Version: 6.00 Build 0)  -->
<svg version="1.1" id="Layer_1" xmlns="http://www.w3.org/2000/svg" xmlns:xlink="http://www.w3.org/1999/xlink" x="0px" y="0px"
	 viewBox="0 0 360 360" style="enable-background:new 0 0 360 360;" xml:space="preserve">
<style type="text/css">
	.st0{fill:#FFFFFF;stroke:#000000;stroke-width:2;stroke-linejoin:round;stroke-miterlimit:10;}
</style>
<g>
	<polygon class="st0" points="215.82,144.18 209.11,150.88 251.63,251.63 215.82,179.99 203.88,156.13 203.4,155.15 179.99,108.38 
		156.6,155.16 156.13,156.13 144.18,179.99 108.38,251.63 150.88,150.88 144.18,144.18 108.38,108.38 108.38,179.99 108.38,251.63 
		144.18,215.82 179.99,179.99 179.99,179.99 179.99,179.99 179.99,179.99 215.82,215.82 251.61,251.61 251.63,251.63 251.63,179.99 
		251.63,108.38 	"/>
	<path class="st0" d="M180.02,190.36c-3.1,0-5.62,2.52-5.62,5.62l0,0c0,3.1,2.52,5.62,5.62,5.62c3.1,0,5.62-2.52,5.62-5.62l0,0
		C185.65,192.88,183.13,190.36,180.02,190.36z"/>
</g>
</svg>
