<?xml version="1.0" encoding="utf-8"?>
<!-- Generator: Adobe Illustrator 23.0.2, SVG Export Plug-In . SVG Version: 6.00 Build 0)  -->
<svg version="1.1" id="Layer_1" xmlns="http://www.w3.org/2000/svg" xmlns:xlink="http://www.w3.org/1999/xlink" x="0px" y="0px"
	 viewBox="0 0 609.9 377.1" style="enable-background:new 0 0 609.9 377.1;" xml:space="preserve">
<style type="text/css">
	.st0{fill:none;stroke:#000000;stroke-linejoin:round;stroke-miterlimit:10;}
	.st1{fill:#CCCCCC;stroke:#F1000D;stroke-linejoin:round;stroke-miterlimit:10;stroke-dasharray:12,4;}
	.st2{fill:#B3B3B3;stroke:#000000;stroke-linejoin:round;stroke-miterlimit:10;}
	.st3{fill:#CCCCCC;}
	.st4{fill:none;stroke:#F1000D;stroke-linejoin:round;}
	.st5{fill:none;stroke:#F1000D;stroke-linejoin:round;stroke-dasharray:12.0623,4.0208;}
	.st6{fill:none;stroke:#F1000D;stroke-linejoin:round;stroke-dasharray:11.9945,3.9982;}
	.st7{fill:none;stroke:#F1000D;stroke-linejoin:round;stroke-dasharray:11.9891,3.9964;}
	.st8{font-family:'Montserrat-Regular';}
	.st9{font-size:12px;}
	.st10{fill:none;stroke:#F1000D;stroke-linejoin:round;stroke-dasharray:11.0144,3.6715;}
	.st11{fill:none;stroke:#0000FF;stroke-linejoin:round;stroke-miterlimit:10;}
</style>
<g>
	<rect x="432.1" y="233.3" class="st0" width="33.9" height="33.9"/>
	<g>
		<polyline class="st0" points="432.1,239.3 432.1,233.3 438.1,233.3 		"/>
		<line class="st0" x1="442.5" y1="233.3" x2="457.8" y2="233.3"/>
		<polyline class="st0" points="460,233.3 466,233.3 466,239.3 		"/>
		<line class="st0" x1="466" y1="243.6" x2="466" y2="259"/>
		<polyline class="st0" points="466,261.2 466,267.2 460,267.2 		"/>
		<line class="st0" x1="455.6" y1="267.2" x2="440.3" y2="267.2"/>
		<polyline class="st0" points="438.1,267.2 432.1,267.2 432.1,261.2 		"/>
		<line class="st0" x1="432.1" y1="256.8" x2="432.1" y2="241.4"/>
	</g>
</g>
<rect x="0.5" y="0.5" class="st0" width="609.4" height="376.6"/>
<rect x="0.5" y="0.5" class="st0" width="376.6" height="376.6"/>
<rect x="377.1" y="288.3" class="st0" width="88.9" height="88.9"/>
<rect x="444.9" y="267.2" class="st1" width="21.1" height="21.1"/>
<rect x="0.5" y="233.3" class="st0" width="74.8" height="143.9"/>
<path class="st1" d="M444.1,282.1L444.1,282.1c0-3.1-2.5-5.6-5.6-5.6s-5.6,2.5-5.6,5.6l0,0c0,3.1,2.5,5.6,5.6,5.6
	C441.6,287.8,444.1,285.3,444.1,282.1z"/>
<rect x="377.1" y="0.5" class="st1" width="232.8" height="232.8"/>
<rect x="233.3" y="233.3" class="st2" width="143.9" height="143.9"/>
<rect x="377.1" y="233.3" class="st1" width="55" height="55"/>
<g>
	<polygon class="st3" points="305.2,233.3 341.2,305.2 377.2,377.1 305.2,377.1 233.2,377.1 269.2,305.2 	"/>
	<g>
		<polyline class="st4" points="302.5,238.7 305.2,233.3 307.9,238.7 		"/>
		<polyline class="st5" points="309.7,242.3 341.2,305.2 373.6,369.9 		"/>
		<polyline class="st4" points="374.5,371.7 377.2,377.1 371.2,377.1 		"/>
		<polyline class="st6" points="367.2,377.1 305.2,377.1 241.2,377.1 		"/>
		<polyline class="st4" points="239.2,377.1 233.2,377.1 235.9,371.7 		"/>
		<polyline class="st5" points="237.7,368.1 269.2,305.2 301.6,240.5 		"/>
	</g>
</g>
<g>
	<rect x="466" y="233.3" class="st3" width="143.9" height="143.9"/>
	<g>
		<polyline class="st4" points="466,239.3 466,233.3 472,233.3 		"/>
		<line class="st7" x1="476" y1="233.3" x2="601.9" y2="233.3"/>
		<polyline class="st4" points="603.9,233.3 609.9,233.3 609.9,239.3 		"/>
		<line class="st7" x1="609.9" y1="243.3" x2="609.9" y2="369.1"/>
		<polyline class="st4" points="609.9,371.1 609.9,377.1 603.9,377.1 		"/>
		<line class="st7" x1="599.9" y1="377.1" x2="474" y2="377.1"/>
		<polyline class="st4" points="472,377.1 466,377.1 466,371.1 		"/>
		<line class="st7" x1="466" y1="367.1" x2="466" y2="241.3"/>
	</g>
</g>
<text transform="matrix(1 0 0 1 489.2526 130.9684)" class="st8 st9">1</text>
<text transform="matrix(1 0 0 1 534.7263 310.5897)" class="st8 st9">2</text>
<text transform="matrix(1 0 0 1 401.8419 263.5979)" class="st8 st9">3</text>
<text transform="matrix(1 0 0 1 451.4974 280.5468)" class="st8 st9">4</text>
<text transform="matrix(1 0 0 1 434.874 286.5267)" class="st8 st9">5</text>
<text transform="matrix(1 0 0 1 300.5366 310.5898)" class="st8 st9">7</text>
<g>
	<rect x="0.7" y="233.3" class="st2" width="143.9" height="143.9"/>
	<rect x="0.5" y="233.3" class="st0" width="74.5" height="143.9"/>
	<g>
		<polygon class="st3" points="75.5,305.2 38.1,341.1 0.7,377.1 0.7,305.2 0.7,233.2 38.1,269.2 		"/>
		<g>
			<polyline class="st4" points="71.2,301 75.5,305.2 71.2,309.3 			"/>
			<polyline class="st10" points="68.5,311.9 38.1,341.1 6.3,371.7 			"/>
			<polyline class="st4" points="5,373 0.7,377.1 0.7,371.1 			"/>
			<polyline class="st6" points="0.7,367.1 0.7,305.2 0.7,241.2 			"/>
			<polyline class="st4" points="0.7,239.2 0.7,233.2 5,237.4 			"/>
			<polyline class="st10" points="7.7,239.9 38.1,269.2 69.8,299.7 			"/>
		</g>
	</g>
</g>
<text transform="matrix(1 0 0 1 27.6948 310.5898)" class="st8 st9">6</text>
<g>
	<path class="st11" d="M0.5,377.1c0-208,168.6-376.6,376.6-376.6"/>
	<path class="st11" d="M377.3,0.6c128.4,0,232.5,104.2,232.5,232.6"/>
	<path class="st11" d="M609.7,233.4c0,79.3-64.2,143.5-143.5,143.5"/>
	<path class="st11" d="M465.8,377c-48.8,0-88.4-39.6-88.4-88.5"/>
	<path class="st11" d="M377.4,288c0-30.1,24.4-54.5,54.4-54.5"/>
	<path class="st11" d="M432.4,233.5c18.5,0,33.4,15,33.4,33.5"/>
	<path class="st11" d="M465.6,267.6c0,11.1-9.1,20.1-20.3,20.1"/>
</g>
</svg>
