<?xml version="1.0" encoding="utf-8"?>
<!-- Generator: Adobe Illustrator 23.0.2, SVG Export Plug-In . SVG Version: 6.00 Build 0)  -->
<svg version="1.1" id="Layer_2" xmlns="http://www.w3.org/2000/svg" xmlns:xlink="http://www.w3.org/1999/xlink" x="0px" y="0px"
	 viewBox="0 0 319.7 319.7" style="enable-background:new 0 0 319.7 319.7;" xml:space="preserve">
<style type="text/css">
	.st0{fill:#FFFFFF;}
</style>
<g>
	<rect x="44.1" y="44.1" width="231.4" height="231.4"/>
	<g>
		<g>
			<polygon class="st0" points="159.8,159.8 124,195.6 88.2,231.4 88.2,159.8 88.2,88.2 124,124 			"/>
		</g>
		<g>
			<polygon class="st0" points="159.8,159.8 195.6,195.6 231.5,231.4 231.5,159.8 231.5,88.2 195.6,124 			"/>
		</g>
	</g>
	<g>
		<polygon points="159.8,158.7 124,195.1 88.2,231.4 88.2,231.4 131.2,129.6 131.2,129.6 		"/>
		<polygon points="159.8,158.7 195.6,195.1 231.5,231.4 231.5,231.4 188.5,129.6 188.5,129.6 		"/>
	</g>
	<g>
		<g>
			<path class="st0" d="M159.8,170.2c-3.1,0-5.6,2.5-5.6,5.6l0,0c0,3.1,2.5,5.6,5.6,5.6c3.1,0,5.6-2.5,5.6-5.6l0,0
				C165.5,172.7,163,170.2,159.8,170.2z"/>
		</g>
		<g>
			<polygon class="st0" points="231.5,231.4 195.6,159.8 159.8,88.2 124,159.8 88.2,231.4 159.8,159.8 			"/>
		</g>
	</g>
	<path class="st0" d="M165.5,175.8L165.5,175.8c0-3.1-2.5-5.6-5.6-5.6c-3.1,0-5.6,2.5-5.6,5.6l0,0c0,3.1,2.5,5.6,5.6,5.6
		S165.5,178.9,165.5,175.8z"/>
</g>
</svg>
