<?xml version="1.0" encoding="utf-8"?>
<!-- Generator: Adobe Illustrator 23.0.2, SVG Export Plug-In . SVG Version: 6.00 Build 0)  -->
<svg version="1.1" id="Layer_1" xmlns="http://www.w3.org/2000/svg" xmlns:xlink="http://www.w3.org/1999/xlink" x="0px" y="0px"
	 viewBox="0 0 377 368" style="enable-background:new 0 0 377 368;" xml:space="preserve">
<style type="text/css">
	.st0{fill:none;stroke:#000000;stroke-miterlimit:10;}
	.st1{fill:none;stroke:#000000;stroke-linejoin:round;stroke-miterlimit:10;}
	.st2{font-family:'MyriadPro-Regular';}
	.st3{font-size:12px;}
</style>
<g>
	<rect x="178" y="323.7" class="st0" width="21.1" height="21.1"/>
	<g>
		<path class="st0" d="M194.8,122.8L194.8,122.8c0-3.1-2.5-5.6-5.6-5.6c-3.1,0-5.6,2.5-5.6,5.6l0,0c0,3.1,2.5,5.6,5.6,5.6
			S194.8,125.9,194.8,122.8z"/>
		<path class="st0" d="M194.8,134.1L194.8,134.1c0-3.1-2.5-5.6-5.6-5.6c-3.1,0-5.6,2.5-5.6,5.6l0,0c0,3.1,2.5,5.6,5.6,5.6
			S194.8,137.2,194.8,134.1z"/>
		<rect x="72.2" y="0.8" class="st1" width="232.8" height="232.8"/>
		<rect x="116.7" y="45.3" class="st1" width="143.9" height="143.9"/>
		<polygon class="st1" points="188.7,45.3 224.7,117.2 260.7,189.1 188.7,189.1 116.8,189.1 152.8,117.2 		"/>
		<polygon class="st1" points="189.1,117.3 152.9,153.2 116.7,189.2 116.7,117.3 116.7,45.3 152.9,81.3 		"/>
		<polygon class="st1" points="189.2,117.3 224.9,153.3 260.6,189.3 260.6,117.3 260.6,45.3 224.9,81.3 		"/>
	</g>
	<rect x="161.1" y="233.6" class="st0" width="55" height="55"/>
	<g>
		<path d="M0.1,288.6h4.3L18,314.7l13.5-26.1h4.3v34.8h-3.2l0-30l-13.6,26.3H17L3.3,293.4v30H0.1V288.6z"/>
		<path d="M46.1,288.6h3.4v34.7h-3.4V288.6z"/>
		<path d="M59.9,288.6h3.4v31.6h15.3v3.1H59.9V288.6z"/>
		<path d="M107.2,290.7c2.8,1.6,5,3.7,6.6,6.4s2.4,5.6,2.4,8.8s-0.8,6.2-2.4,8.9c-1.6,2.7-3.8,4.9-6.6,6.5c-2.8,1.6-5.8,2.4-9.1,2.4
			c-3.3,0-6.3-0.8-9.1-2.4c-2.8-1.6-5-3.7-6.6-6.5s-2.4-5.7-2.4-8.9s0.8-6.2,2.4-8.8s3.8-4.8,6.6-6.4c2.8-1.6,5.8-2.4,9.1-2.4
			S104.4,289.1,107.2,290.7z M90.7,293.4c-2.3,1.3-4,3-5.4,5.3s-2,4.6-2,7.3s0.7,5.1,2,7.4c1.3,2.3,3.1,4,5.4,5.3
			c2.3,1.3,4.7,2,7.3,2c2.6,0,5-0.6,7.3-2s4-3.1,5.3-5.3s2-4.7,2-7.4s-0.7-5.1-2-7.3c-1.3-2.2-3.1-4-5.3-5.3
			c-2.2-1.3-4.7-1.9-7.3-1.9C95.4,291.4,93,292.1,90.7,293.4z"/>
		<path d="M138.2,292.3c-1.7-0.5-3.3-0.7-4.8-0.7c-2.4,0-4.3,0.5-5.7,1.4c-1.4,0.9-2.2,2.2-2.2,3.9c0,1.4,0.4,2.6,1.2,3.5
			c0.8,0.9,1.8,1.6,2.9,2.1c1.2,0.5,2.8,1.1,4.8,1.7c2.4,0.7,4.3,1.4,5.7,2.1s2.7,1.7,3.7,3c1,1.3,1.5,3,1.5,5.1
			c0,1.9-0.5,3.5-1.6,4.9c-1,1.4-2.5,2.5-4.4,3.3c-1.9,0.8-4.1,1.2-6.5,1.2c-2.4,0-4.8-0.5-7.1-1.4s-4.3-2.2-5.9-3.8l1.6-2.8
			c1.6,1.5,3.4,2.7,5.4,3.6c2.1,0.9,4.1,1.3,6.1,1.3c2.6,0,4.8-0.5,6.3-1.6s2.3-2.5,2.3-4.4c0-1.5-0.4-2.6-1.2-3.6
			c-0.8-0.9-1.8-1.6-2.9-2.1c-1.2-0.5-2.8-1.1-4.9-1.7c-2.4-0.7-4.2-1.4-5.7-2.1c-1.4-0.6-2.6-1.6-3.6-2.9c-1-1.3-1.5-2.9-1.5-5
			c0-1.8,0.5-3.3,1.5-4.6c1-1.3,2.4-2.3,4.2-3.1c1.8-0.7,3.9-1.1,6.2-1.1c1.9,0,3.8,0.3,5.7,0.8c1.9,0.6,3.6,1.3,5,2.2l-1.5,2.9
			C141.4,293.4,139.9,292.7,138.2,292.3z"/>
		<path d="M179.4,323.4l-4.1-9.2H156l-4.1,9.2h-3.7l15.6-34.7h3.6l15.6,34.7H179.4z M157.3,311.1h16.6l-8.4-18.8L157.3,311.1z"/>
		<path d="M181,288.6h3.7l12.4,31l12.3-31h3.6l-14.3,34.7h-3.6L181,288.6z"/>
		<path d="M218.6,288.6h3.4v31.6h15.3v3.1h-18.7V288.6z"/>
		<path d="M257.1,320.8c-1.7,1.8-4.1,2.7-7.1,2.7c-1.9,0-3.6-0.4-5.2-1.3c-1.6-0.8-3-2.1-4.2-3.6l1.7-2.6c1.1,1.4,2.3,2.4,3.6,3.1
			s2.7,1.1,4.1,1.1c2,0,3.6-0.6,4.6-1.8c1.1-1.2,1.6-3,1.6-5.3v-21.3h-12.5v-3.1h16v24.5C259.7,316.5,258.8,319,257.1,320.8z"/>
		<path d="M269.6,288.6h23.3v3.1h-19.8v12.4h17.7v3.1h-17.7v13.1h20.5v3.1h-23.9V288.6z"/>
		<path d="M297.6,288.6h3.7l12.4,31l12.3-31h3.6l-14.3,34.7h-3.6L297.6,288.6z"/>
		<path d="M335.2,288.6h3.4v34.7h-3.4V288.6z"/>
		<path d="M370.2,292.5c-1.8-0.8-3.7-1.1-5.7-1.1c-2.7,0-5.1,0.6-7.4,1.9s-4,3.1-5.3,5.3c-1.3,2.2-2,4.7-2,7.3s0.6,5.1,2,7.3
			s3.1,4,5.3,5.3c2.2,1.3,4.7,2,7.4,2c1.9,0,3.8-0.4,5.6-1.1c1.8-0.7,3.4-1.8,4.9-3.1l2.1,2.2c-1.7,1.6-3.7,2.9-5.9,3.8
			s-4.5,1.4-6.8,1.4c-3.3,0-6.3-0.8-9-2.4c-2.8-1.6-4.9-3.7-6.5-6.5c-1.6-2.7-2.4-5.7-2.4-8.9s0.8-6.2,2.4-8.8s3.8-4.8,6.6-6.4
			c2.8-1.6,5.8-2.4,9.1-2.4c2.4,0,4.6,0.4,6.8,1.3s4.1,2.1,5.8,3.6l-2,2.4C373.6,294.4,372,293.3,370.2,292.5z M368.6,278.8l3.4,1.5
			l-6.3,5l-3-0.4L368.6,278.8z"/>
	</g>
	<g>
		<path d="M92.8,368.1L90,362H77.2l-2.7,6.2H72L82.4,345h2.4l10.4,23.1H92.8z M78.1,359.9h11.1l-5.6-12.5L78.1,359.9z"/>
		<path d="M100.1,345h2.3v21.1h10.2v2h-12.5V345z"/>
		<path d="M117.7,345h15.5v2H120v8.3h11.8v2H120v8.7h13.6v2h-15.9V345z"/>
		<path d="M158,368.1h-2.8l-8.8-11.3l-4.7,5.1v6.2h-2.3V345h2.3v14.1l12.9-14.1h2.8l-9.3,10.1L158,368.1z"/>
		<path d="M173.1,347.4c-1.1-0.3-2.2-0.5-3.2-0.5c-1.6,0-2.9,0.3-3.8,0.9c-1,0.6-1.4,1.5-1.4,2.6c0,1,0.3,1.7,0.8,2.3
			c0.5,0.6,1.2,1.1,1.9,1.4s1.8,0.7,3.2,1.1c1.6,0.5,2.8,0.9,3.8,1.4c1,0.5,1.8,1.1,2.4,2c0.7,0.9,1,2,1,3.4c0,1.2-0.4,2.3-1,3.3
			c-0.7,1-1.7,1.7-2.9,2.2c-1.3,0.5-2.7,0.8-4.3,0.8c-1.6,0-3.2-0.3-4.7-1c-1.5-0.6-2.9-1.5-4-2.5l1.1-1.9c1,1,2.2,1.8,3.6,2.4
			c1.4,0.6,2.7,0.9,4,0.9c1.8,0,3.2-0.4,4.2-1.1c1-0.7,1.6-1.7,1.6-2.9c0-1-0.3-1.8-0.8-2.4c-0.5-0.6-1.2-1.1-1.9-1.4
			c-0.8-0.3-1.9-0.7-3.3-1.2c-1.6-0.5-2.8-0.9-3.8-1.4s-1.8-1.1-2.4-1.9c-0.7-0.9-1-2-1-3.3c0-1.2,0.3-2.2,1-3.1
			c0.7-0.9,1.6-1.6,2.8-2c1.2-0.5,2.6-0.7,4.1-0.7c1.3,0,2.5,0.2,3.8,0.6c1.3,0.4,2.4,0.9,3.4,1.5l-1,2
			C175.3,348.2,174.3,347.7,173.1,347.4z"/>
		<path d="M201.7,368.1l-2.8-6.2h-12.8l-2.7,6.2h-2.4l10.4-23.1h2.4l10.4,23.1H201.7z M187,359.9h11.1l-5.6-12.5L187,359.9z"/>
		<path d="M225.8,345h2.3v23.1h-2.4l-14.3-19.6v19.6H209V345h2.4l14.4,19.6L225.8,345L225.8,345z"/>
		<path d="M251.5,346.5c1.8,1,3.3,2.4,4.3,4.2c1.1,1.8,1.6,3.7,1.6,5.9s-0.5,4.1-1.6,5.9c-1.1,1.8-2.5,3.2-4.3,4.2s-3.9,1.5-6.1,1.5
			h-9.2V345h9.3C247.6,345,249.6,345.5,251.5,346.5z M250.3,364.8c1.5-0.8,2.6-2,3.5-3.4c0.9-1.5,1.3-3,1.3-4.8
			c0-1.8-0.4-3.4-1.3-4.8s-2-2.6-3.5-3.5c-1.5-0.8-3.1-1.3-4.9-1.3h-7v19h7.1C247.2,366.1,248.8,365.7,250.3,364.8z"/>
		<path d="M279.9,368.1l-2.8-6.2h-12.9l-2.7,6.2h-2.5l10.4-23.1h2.4l10.4,23.1H279.9z M265.2,359.9h11.1l-5.6-12.5L265.2,359.9z"/>
		<path d="M302.5,368.1l-5-7.5c-0.7,0-1.3,0.1-1.6,0.1h-6.4v7.5h-2.3V345h8.6c2.9,0,5.1,0.7,6.7,2c1.6,1.3,2.4,3.2,2.4,5.7
			c0,1.9-0.5,3.5-1.4,4.8c-0.9,1.3-2.3,2.2-4,2.7l5.6,8L302.5,368.1L302.5,368.1z M295.9,358.6c2.2,0,3.9-0.5,5.1-1.5
			c1.2-1,1.8-2.5,1.8-4.4c0-1.9-0.6-3.3-1.8-4.2s-2.9-1.5-5.1-1.5h-6.4v11.6L295.9,358.6L295.9,358.6z"/>
	</g>
</g>
<g>
	<text transform="matrix(1 0 0 1 130.6006 122.8202)" class="st2 st3">6</text>
	<text transform="matrix(1 0 0 1 240.2432 122.8202)" class="st2 st3">6</text>
</g>
<g>
	<text transform="matrix(1 0 0 1 185.4218 216.3682)" class="st2 st3">1</text>
	<text transform="matrix(1 0 0 1 185.4218 173.9263)" class="st2 st3">2</text>
	<text transform="matrix(1 0 0 1 185.4218 264.6318)" class="st2 st3">3</text>
	<text transform="matrix(1 0 0 1 185.4218 338.215)" class="st2 st3">4</text>
	<text transform="matrix(1 0 0 1 185.4219 78.2212)" class="st2 st3">7</text>
	<text transform="matrix(1 0 0 1 185.4219 138.68)" class="st2 st3">5</text>
</g>
</svg>
