<?xml version="1.0" encoding="utf-8"?>
<!-- Generator: Adobe Illustrator 23.0.2, SVG Export Plug-In . SVG Version: 6.00 Build 0)  -->
<svg version="1.1" id="Layer_1" xmlns="http://www.w3.org/2000/svg" xmlns:xlink="http://www.w3.org/1999/xlink" x="0px" y="0px"
	 viewBox="0 0 319.7 319.7" style="enable-background:new 0 0 319.7 319.7;" xml:space="preserve">
<style type="text/css">
	.st0{fill:#FFFFFF;}
</style>
<g>
	<rect x="102" y="102" width="115.7" height="115.7"/>
	<g>
		<g>
			<polygon class="st0" points="159.9,159.9 142,177.8 124.1,195.7 124.1,159.9 124.1,124.1 142,142 			"/>
		</g>
		<g>
			<polygon class="st0" points="159.9,159.9 177.8,177.8 195.7,195.7 195.7,159.9 195.7,124.1 177.8,142 			"/>
		</g>
	</g>
	<g>
		<polygon points="159.9,159.3 142,177.5 124.1,195.7 124.1,195.7 145.6,144.8 145.6,144.8 		"/>
		<polygon points="159.9,159.3 177.8,177.5 195.7,195.7 195.7,195.7 174.2,144.8 174.2,144.8 		"/>
	</g>
	<g>
		<g>
			<path class="st0" d="M159.9,165.1c-1.6,0-2.8,1.3-2.8,2.8l0,0c0,1.6,1.3,2.8,2.8,2.8s2.8-1.3,2.8-2.8l0,0
				C162.7,166.3,161.5,165.1,159.9,165.1z"/>
		</g>
		<g>
			<polygon class="st0" points="195.7,195.7 177.8,159.9 159.9,124.1 142,159.9 124.1,195.7 159.9,159.9 			"/>
		</g>
	</g>
	<path class="st0" d="M162.7,167.9L162.7,167.9c0-1.6-1.3-2.8-2.8-2.8s-2.8,1.3-2.8,2.8l0,0c0,1.6,1.3,2.8,2.8,2.8
		S162.7,169.4,162.7,167.9z"/>
</g>
</svg>
