<?xml version="1.0" encoding="utf-8"?>
<!-- Generator: Adobe Illustrator 23.0.2, SVG Export Plug-In . SVG Version: 6.00 Build 0)  -->
<svg version="1.1" id="Layer_1" xmlns="http://www.w3.org/2000/svg" xmlns:xlink="http://www.w3.org/1999/xlink" x="0px" y="0px"
	 viewBox="0 0 360 392.4" style="enable-background:new 0 0 360 392.4;" xml:space="preserve">
<style type="text/css">
	.st0{fill:#FFFFFF;}
</style>
<g>
	<g>
		<path class="st0" d="M68.9,41.5v222.3h222.3V41.5H68.9z M185.4,167.9c0,3-2.4,5.4-5.4,5.4c-3,0-5.4-2.4-5.4-5.4l0,0
			c0-3,2.4-5.4,5.4-5.4C183,162.5,185.4,164.9,185.4,167.9L185.4,167.9z M248.4,152.6V221l0,0l0,0l-34.2-34.2L180,152.6l-34.2,34.2
			L111.6,221l0,0v-68.4V84.2l34.2,34.2l6.4,6.4L111.6,221l34.2-68.4l11.4-22.8l0.5-0.9L180,84.2l22.3,44.7l0.5,0.9l11.4,22.8
			l34.2,68.4l-40.6-96.2l6.4-6.4l34.2-34.2L248.4,152.6L248.4,152.6z"/>
	</g>
	<g>
		<g>
			<path class="st0" d="M180,286.4c-73.7,0-133.6-60-133.6-133.8S106.3,18.8,180,18.8s133.6,60,133.6,133.8S253.7,286.4,180,286.4z
				 M180,21.9c-72,0-130.5,58.6-130.5,130.7S108,283.3,180,283.3s130.5-58.6,130.5-130.7S251.9,21.9,180,21.9z"/>
		</g>
		<g>
			<polygon class="st0" points="27.4,152.6 37.9,157.9 48.4,163.2 48.4,152.6 48.4,142.1 37.9,147.4 			"/>
		</g>
		<g>
			<polygon class="st0" points="311.6,142.1 311.6,152.6 311.6,163.2 322.1,157.9 332.6,152.6 322.1,147.4 			"/>
		</g>
		<g>
			<polygon class="st0" points="190.5,21.1 185.3,10.5 180,0 174.7,10.5 169.5,21.1 180,21.1 			"/>
		</g>
		<g>
			<polygon class="st0" points="169.5,284.2 174.7,294.7 180,305.3 185.3,294.7 190.5,284.2 180,284.2 			"/>
		</g>
	</g>
	<g>
		<g>
			<path class="st0" d="M0,316.7h4.1l13,24.9l12.9-24.9H34v33.2h-3l0-28.7l-13,25.1h-1.8l-13-25.1v28.7H0V316.7z"/>
			<path class="st0" d="M43.9,316.8h3.3v33.2h-3.3C43.9,349.9,43.9,316.8,43.9,316.8z"/>
			<path class="st0" d="M57.1,316.8h3.3V347H75v2.9H57.1V316.8z"/>
			<path class="st0" d="M102.3,318.7c2.6,1.5,4.7,3.5,6.3,6.1s2.3,5.4,2.3,8.4s-0.8,5.9-2.3,8.5c-1.5,2.6-3.6,4.7-6.3,6.2
				c-2.6,1.5-5.5,2.3-8.7,2.3c-3.2,0-6.1-0.8-8.7-2.3c-2.6-1.5-4.7-3.6-6.3-6.2c-1.5-2.6-2.3-5.4-2.3-8.5s0.8-5.9,2.3-8.4
				c1.5-2.6,3.6-4.6,6.3-6.1s5.5-2.3,8.7-2.3C96.7,316.5,99.6,317.2,102.3,318.7z M86.6,321.3c-2.1,1.2-3.9,2.9-5.1,5
				s-1.9,4.4-1.9,7c0,2.5,0.6,4.9,1.9,7c1.3,2.1,3,3.8,5.1,5.1c2.1,1.3,4.5,1.9,7,1.9c2.5,0,4.8-0.6,7-1.9c2.1-1.3,3.8-3,5.1-5.1
				c1.3-2.1,1.9-4.5,1.9-7c0-2.5-0.6-4.9-1.9-7c-1.3-2.1-3-3.8-5.1-5c-2.1-1.2-4.4-1.9-7-1.9C91.1,319.4,88.7,320,86.6,321.3z"/>
			<path class="st0" d="M131.9,320.2c-1.6-0.5-3.1-0.7-4.6-0.7c-2.3,0-4.1,0.4-5.5,1.3s-2.1,2.1-2.1,3.7c0,1.4,0.4,2.5,1.1,3.3
				c0.8,0.8,1.7,1.5,2.8,2c1.1,0.5,2.6,1,4.6,1.6c2.2,0.7,4.1,1.3,5.4,2c1.4,0.6,2.5,1.6,3.5,2.8c1,1.2,1.5,2.9,1.5,4.9
				c0,1.8-0.5,3.3-1.5,4.7c-1,1.4-2.4,2.4-4.2,3.2c-1.8,0.7-3.9,1.1-6.2,1.1c-2.3,0-4.6-0.5-6.8-1.4c-2.2-0.9-4.1-2.1-5.7-3.6
				l1.5-2.7c1.5,1.5,3.2,2.6,5.2,3.4c2,0.8,3.9,1.2,5.8,1.2c2.5,0,4.5-0.5,6-1.5s2.2-2.4,2.2-4.2c0-1.4-0.4-2.5-1.1-3.4
				c-0.8-0.9-1.7-1.6-2.8-2c-1.1-0.5-2.7-1-4.7-1.7c-2.2-0.7-4-1.4-5.4-2c-1.4-0.6-2.5-1.5-3.5-2.8c-0.9-1.2-1.4-2.8-1.4-4.8
				c0-1.7,0.5-3.1,1.4-4.4c0.9-1.3,2.3-2.2,4-2.9c1.7-0.7,3.7-1,5.9-1c1.8,0,3.6,0.3,5.4,0.8c1.8,0.5,3.4,1.3,4.8,2.1l-1.4,2.8
				C135,321.3,133.5,320.6,131.9,320.2z"/>
			<path class="st0" d="M171.2,349.9l-3.9-8.8h-18.4l-3.9,8.8h-3.5l14.9-33.2h3.4l14.9,33.2H171.2z M150.2,338.1H166l-8-17.9
				L150.2,338.1z"/>
			<path class="st0" d="M172.7,316.8h3.5l11.8,29.6l11.8-29.6h3.5l-13.6,33.2h-3.4L172.7,316.8z"/>
			<path class="st0" d="M208.7,316.8h3.3V347h14.6v2.9h-17.9L208.7,316.8L208.7,316.8z"/>
			<path class="st0" d="M245.4,347.5c-1.6,1.7-3.9,2.6-6.8,2.6c-1.8,0-3.4-0.4-5-1.2c-1.5-0.8-2.9-2-4-3.5l1.7-2.5
				c1,1.3,2.1,2.3,3.4,3c1.3,0.7,2.6,1,3.9,1c1.9,0,3.4-0.6,4.4-1.8c1-1.2,1.5-2.9,1.5-5.1v-20.3h-12v-3h15.3v23.4
				C247.9,343.3,247.1,345.7,245.4,347.5z"/>
			<path class="st0" d="M257.4,316.8h22.2v2.9h-18.9v11.9h16.9v2.9h-16.9V347h19.5v2.9h-22.8V316.8z"/>
			<path class="st0" d="M284.1,316.8h3.5l11.8,29.6l11.8-29.6h3.5l-13.6,33.2h-3.4L284.1,316.8z"/>
			<path class="st0" d="M320,316.8h3.3v33.2H320V316.8z"/>
			<path class="st0" d="M353.4,320.4c-1.7-0.7-3.5-1.1-5.4-1.1c-2.6,0-4.9,0.6-7,1.9s-3.8,2.9-5.1,5.1c-1.3,2.1-1.9,4.5-1.9,7
				c0,2.5,0.6,4.9,1.9,7s2.9,3.8,5.1,5.1c2.1,1.3,4.5,1.9,7,1.9c1.8,0,3.6-0.4,5.4-1.1c1.7-0.7,3.3-1.7,4.7-3l2,2.1
				c-1.6,1.5-3.5,2.7-5.6,3.6c-2.1,0.9-4.3,1.3-6.5,1.3c-3.1,0-6-0.8-8.6-2.3c-2.6-1.5-4.7-3.6-6.2-6.2c-1.5-2.6-2.3-5.4-2.3-8.5
				s0.8-5.9,2.3-8.4c1.5-2.6,3.6-4.6,6.3-6.1c2.6-1.5,5.5-2.3,8.7-2.3c2.2,0,4.4,0.4,6.5,1.3c2.1,0.8,3.9,2,5.5,3.5l-1.9,2.3
				C356.7,322.2,355.1,321.2,353.4,320.4z M351.9,307.4l3.3,1.4l-6,4.7l-2.8-0.3L351.9,307.4z"/>
		</g>
		<g>
			<path class="st0" d="M88.5,392.4l-2.6-5.9H73.6l-2.6,5.9h-2.3l10-22.1h2.3l10,22.1H88.5z M74.5,384.5H85l-5.3-12L74.5,384.5z"/>
			<path class="st0" d="M95.5,370.3h2.2v20.1h9.7v2H95.5L95.5,370.3L95.5,370.3z"/>
			<path class="st0" d="M112.3,370.3h14.8v2h-12.6v7.9h11.3v2h-11.3v8.3h13v2h-15.2V370.3z"/>
			<path class="st0" d="M150.8,392.4h-2.7l-8.4-10.8l-4.5,4.9v5.9h-2.2v-22.1h2.2v13.5l12.3-13.5h2.7l-8.9,9.7L150.8,392.4z"/>
			<path class="st0" d="M165.2,372.6c-1.1-0.3-2.1-0.5-3-0.5c-1.5,0-2.7,0.3-3.7,0.9c-0.9,0.6-1.4,1.4-1.4,2.5
				c0,0.9,0.2,1.6,0.8,2.2c0.5,0.6,1.1,1,1.9,1.3c0.7,0.3,1.7,0.7,3,1.1c1.5,0.4,2.7,0.9,3.6,1.3c0.9,0.4,1.7,1.1,2.3,1.9
				c0.6,0.8,1,1.9,1,3.3c0,1.2-0.3,2.2-1,3.1c-0.7,0.9-1.6,1.6-2.8,2.1s-2.6,0.7-4.1,0.7c-1.5,0-3-0.3-4.5-0.9s-2.7-1.4-3.8-2.4
				l1-1.8c1,1,2.1,1.7,3.4,2.3c1.3,0.6,2.6,0.8,3.9,0.8c1.7,0,3-0.3,4-1s1.5-1.6,1.5-2.8c0-0.9-0.2-1.7-0.8-2.3
				c-0.5-0.6-1.1-1-1.9-1.4c-0.7-0.3-1.8-0.7-3.1-1.1c-1.5-0.5-2.7-0.9-3.6-1.3c-0.9-0.4-1.7-1-2.3-1.8c-0.6-0.8-0.9-1.9-0.9-3.2
				c0-1.1,0.3-2.1,0.9-2.9c0.6-0.8,1.5-1.5,2.7-1.9c1.1-0.4,2.5-0.7,4-0.7c1.2,0,2.4,0.2,3.6,0.5c1.2,0.4,2.3,0.8,3.2,1.4l-0.9,1.9
				C167.3,373.3,166.3,372.9,165.2,372.6z"/>
			<path class="st0" d="M192.5,392.4l-2.6-5.9h-12.3l-2.6,5.9h-2.3l10-22.1h2.3l10,22.1H192.5z M178.5,384.5H189l-5.3-12
				L178.5,384.5z"/>
			<path class="st0" d="M215.5,370.3h2.1v22.1h-2.3l-13.7-18.7v18.7h-2.2v-22.1h2.3l13.7,18.7V370.3z"/>
			<path class="st0" d="M240,371.7c1.7,1,3.1,2.3,4.1,4s1.5,3.6,1.5,5.6s-0.5,3.9-1.5,5.6c-1,1.7-2.4,3-4.1,4
				c-1.7,1-3.7,1.5-5.8,1.5h-8.8v-22.1h8.9C236.4,370.3,238.3,370.8,240,371.7z M238.9,389.2c1.4-0.8,2.5-1.9,3.3-3.3
				s1.2-2.9,1.2-4.6c0-1.7-0.4-3.2-1.2-4.6c-0.8-1.4-1.9-2.5-3.3-3.3c-1.4-0.8-3-1.2-4.6-1.2h-6.7v18.2h6.8
				C236,390.4,237.5,390,238.9,389.2z"/>
			<path class="st0" d="M267.2,392.4l-2.6-5.9h-12.3l-2.6,5.9h-2.3l10-22.1h2.3l10,22.1H267.2z M253.2,384.5h10.6l-5.3-12
				L253.2,384.5z"/>
			<path class="st0" d="M288.8,392.4l-4.8-7.2c-0.7,0-1.2,0.1-1.5,0.1h-6.1v7.2h-2.2v-22.1h8.3c2.8,0,4.9,0.6,6.4,1.9
				c1.5,1.3,2.3,3.1,2.3,5.4c0,1.8-0.4,3.4-1.3,4.6c-0.9,1.2-2.1,2.1-3.8,2.6l5.3,7.6H288.8z M282.5,383.3c2.1,0,3.7-0.5,4.9-1.4
				c1.1-1,1.7-2.3,1.7-4.2c0-1.8-0.6-3.1-1.7-4c-1.1-0.9-2.8-1.4-4.9-1.4h-6.1v11L282.5,383.3L282.5,383.3z"/>
		</g>
	</g>
</g>
</svg>
