<?xml version="1.0" encoding="utf-8"?>
<!-- Generator: Adobe Illustrator 23.0.2, SVG Export Plug-In . SVG Version: 6.00 Build 0)  -->
<svg version="1.1" id="Layer_1" xmlns="http://www.w3.org/2000/svg" xmlns:xlink="http://www.w3.org/1999/xlink" x="0px" y="0px"
	 viewBox="0 0 319.7 319.7" style="enable-background:new 0 0 319.7 319.7;" xml:space="preserve">
<g>
	<polygon points="168.8,150.9 167.1,152.6 177.8,177.8 168.8,159.9 165.8,153.9 165.7,153.7 159.8,142 154,153.7 153.9,153.9 
		150.9,159.9 141.9,177.8 152.6,152.6 150.9,150.9 141.9,142 141.9,159.9 141.9,177.8 150.9,168.8 159.8,159.9 159.8,159.9 
		159.8,159.9 159.8,159.9 168.8,168.8 177.7,177.8 177.8,177.8 177.8,159.9 177.8,142 	"/>
	<path d="M159.8,162.5c-0.8,0-1.4,0.6-1.4,1.4l0,0c0,0.8,0.6,1.4,1.4,1.4c0.8,0,1.4-0.6,1.4-1.4l0,0
		C161.3,163.1,160.6,162.5,159.8,162.5z"/>
</g>
</svg>
