<?xml version="1.0" encoding="utf-8"?>
<!-- Generator: Adobe Illustrator 23.0.2, SVG Export Plug-In . SVG Version: 6.00 Build 0)  -->
<svg version="1.1" id="Layer_2" xmlns="http://www.w3.org/2000/svg" xmlns:xlink="http://www.w3.org/1999/xlink" x="0px" y="0px"
	 viewBox="0 0 320 214.4" style="enable-background:new 0 0 320 214.4;" xml:space="preserve">
<style type="text/css">
	.st0{fill:#F4413B;}
</style>
<g>
	<polygon points="213,107.2 186.5,54.2 160,1.2 133.5,54.2 107,107.2 54,213.2 107,213.2 133.5,160.2 160,107.2 186.5,160.2 
		213,213.2 266,213.2 	"/>
	<polygon class="st0" points="239.5,54.2 213,1.2 186.5,54.2 160,107.2 133.5,54.2 107,1.2 80.5,54.2 54,107.2 54,213.2 107,107.2 
		133.5,160.2 160,213.2 186.5,160.2 213,107.2 266,213.2 266,107.2 	"/>
	<circle cx="160" cy="160.2" r="23.8"/>
</g>
</svg>
