<?xml version="1.0" encoding="utf-8"?>
<!-- Generator: Adobe Illustrator 23.0.2, SVG Export Plug-In . SVG Version: 6.00 Build 0)  -->
<svg version="1.1" id="Layer_3" xmlns="http://www.w3.org/2000/svg" xmlns:xlink="http://www.w3.org/1999/xlink" x="0px" y="0px"
	 viewBox="0 0 320 214.4" style="enable-background:new 0 0 320 214.4;" xml:space="preserve">
<style type="text/css">
	.st0{fill:none;stroke:#000000;stroke-width:0.75;stroke-miterlimit:10;}
</style>
<g>
	<rect x="53.5" y="0.4" class="st0" width="213.2" height="213.2"/>
	<rect x="53.6" y="0.4" class="st0" width="106.6" height="213.2"/>
	<polyline class="st0" points="53.5,0.4 160.1,213.6 266.8,0.4 	"/>
	<ellipse class="st0" cx="160.1" cy="107" rx="106.6" ry="106.6"/>
	<polygon class="st0" points="160,1.3 213.1,107.4 266.3,213.6 160,213.6 53.7,213.6 106.8,107.4 	"/>
	<polygon class="st0" points="213.1,1.3 266.3,107.4 319.4,213.6 213.1,213.6 106.8,213.6 160,107.4 	"/>
	<polygon class="st0" points="106.8,1.3 160,107.4 213.1,213.6 106.8,213.6 0.6,213.6 53.7,107.4 	"/>
	<circle class="st0" cx="160.1" cy="160.3" r="23.8"/>
	<rect x="53.5" y="106.9" class="st0" width="213.2" height="106.7"/>
</g>
</svg>
