<?xml version="1.0" encoding="utf-8"?>
<!-- Generator: Adobe Illustrator 23.0.2, SVG Export Plug-In . SVG Version: 6.00 Build 0)  -->
<svg version="1.1" id="Layer_1" xmlns="http://www.w3.org/2000/svg" xmlns:xlink="http://www.w3.org/1999/xlink" x="0px" y="0px"
	 viewBox="0 0 320 214.4" style="enable-background:new 0 0 320 214.4;" xml:space="preserve">
<style type="text/css">
	.st0{fill:#DBDBDB;}
	
		.st1{fill:none;stroke:#45A9E0;stroke-width:0.75;stroke-linecap:round;stroke-linejoin:round;stroke-miterlimit:10;stroke-dasharray:5,3;}
</style>
<g>
	<path class="st0" d="M53.6,213.2l21.3-42.5l31.9-63.7l0.1-0.2l0.1-0.2l26.4-52.7l26.6-53.1l0.2,0.3l26.4,52.8l26.4,52.7l0.2,0.4
		l0.1,0.1l32,63.9l21.2,42.2h-53.2l-5.6-11.1l-21-41.9l-3.9-7.8c-0.7-2.2-1.8-4.3-3.1-6.2l-19.5-38.8v-0.7v-0.1h-0.4l0.2,0.4
		l-26.5,52.9L112.4,202l-5.6,11.2"/>
	<g>
		<polygon class="st0" points="319.6,213.2 266.9,213.2 266.9,108.1 		"/>
		<path class="st0" d="M266.9,108.1l-0.5-1l-0.2-0.4l-26.3-52.6L223,20.3l-9.8-19.5L208,11.2l-21.4,42.7l-2.5,5l-23.9,47.7v0.1v0.7
			l-0.2-0.4l-0.2-0.4l-23.8-47.5l-2.6-5.1l-21.4-42.7l-5.3-10.5l-10,20L80.3,53.7l-26.5,52.9l-0.2,0.4l-0.2,0.3l0,0v105.9h0.2
			l21.3-42.5l31.9-63.7l0,0c0-0.1,0-0.3,0-0.4l0,0h0.2l-0.1,0.2l21.3,42.5l5.3,10.7l26.7,53.3l26.5-53l5.5-11l21.1-42.1l-0.1-0.1
			l-0.2-0.4h0.6l0,0c0,0.4,0,0.7,0,1.1l31.7,63.3l21.2,42.2h0.5L266.9,108.1L266.9,108.1z"/>
		<polygon class="st0" points="0.3,213.2 53.5,107.4 53.5,213.2 		"/>
	</g>
	<path class="st0" d="M183.9,159.9c0,13.1-10.7,23.8-23.8,23.8s-23.8-10.6-23.8-23.8c0-13.1,10.7-23.8,23.8-23.8
		c8.1,0,15.2,4,19.5,10.1l3.1,6.2C183.5,154.9,183.9,157.3,183.9,159.9z"/>
	<rect x="53.5" y="0.5" class="st1" width="213.5" height="213.3"/>
	<polyline class="st1" points="266.9,213.8 53.5,213.8 53.5,107.2 266.9,107.2 	"/>
	<polyline class="st1" points="160.1,0.5 160.1,213.8 53.5,213.8 	"/>
	<path class="st1" d="M53.5,0.5"/>
	<polyline class="st1" points="53.5,0.5 160.1,213.8 266.9,0.5 	"/>
	<ellipse class="st1" cx="160.1" cy="107.2" rx="106.8" ry="106.6"/>
	<polyline class="st1" points="53.6,213.8 106.8,107.6 160,1.4 213.3,107.6 266.4,213.8 	"/>
	<polygon class="st1" points="213.3,1.4 266.4,107.6 319.6,213.8 213.3,213.8 106.8,213.8 160,107.6 	"/>
	<polyline class="st1" points="106.8,213.8 0.3,213.8 53.6,107.6 106.8,1.4 160,107.6 213.3,213.8 	"/>
	<ellipse class="st1" cx="160.1" cy="160.5" rx="23.8" ry="23.8"/>
</g>
</svg>
