<?xml version="1.0" encoding="utf-8"?>
<!-- Generator: Adobe Illustrator 23.0.2, SVG Export Plug-In . SVG Version: 6.00 Build 0)  -->
<svg version="1.1" xmlns="http://www.w3.org/2000/svg" xmlns:xlink="http://www.w3.org/1999/xlink" x="0px" y="0px"
	 viewBox="0 0 720 720" style="enable-background:new 0 0 720 720;" xml:space="preserve">
<style type="text/css">
	.st0{fill:#075EA6;}
	.st1{fill:#999999;}
	.st2{fill:#F4413B;}
</style>
<g id="Layer_1">
	<g>
		<path d="M0,406.9h8.3l18.6,35.7l18.4-35.7h8.3v50.8h-6.5L47,417.1L29,452.3h-4.3L6.5,417.1v40.6H0V406.9z"/>
		<path d="M73.6,406.9h7v50.8h-7V406.9z"/>
		<path d="M100.5,406.9h7v44.5h22.2v6.3h-29.2V406.9z"/>
		<path d="M179.7,409.8c4.1,2.3,7.3,5.4,9.7,9.3c2.4,3.9,3.6,8.3,3.6,13s-1.2,9.1-3.6,13.1c-2.4,4-5.6,7.1-9.7,9.4
			c-4.1,2.3-8.6,3.4-13.5,3.4c-4.9,0-9.4-1.1-13.5-3.4c-4.1-2.3-7.3-5.4-9.7-9.4c-2.4-4-3.6-8.4-3.6-13.1s1.2-9.1,3.6-13
			c2.4-3.9,5.6-7.1,9.7-9.3c4.1-2.3,8.6-3.4,13.5-3.4C171.1,406.4,175.6,407.6,179.7,409.8z M156.5,415.3c-3,1.7-5.4,4.1-7.2,7.1
			c-1.8,3-2.7,6.3-2.7,9.8s0.9,6.9,2.7,9.9c1.8,3,4.2,5.4,7.2,7.2c3,1.8,6.3,2.6,9.8,2.6c3.5,0,6.8-0.9,9.8-2.6
			c3-1.8,5.3-4.2,7.1-7.2c1.8-3,2.6-6.3,2.6-9.9s-0.9-6.9-2.6-9.8c-1.8-3-4.1-5.3-7.1-7.1c-3-1.7-6.2-2.6-9.8-2.6
			C162.8,412.7,159.5,413.5,156.5,415.3z"/>
		<path d="M230.7,414.1c-2.5-0.7-4.9-1.1-7-1.1c-3,0-5.3,0.6-7.1,1.7c-1.8,1.1-2.6,2.7-2.6,4.7c0,1.8,0.5,3.3,1.6,4.4
			c1.1,1.1,2.4,2,3.9,2.7c1.5,0.7,3.7,1.4,6.5,2.3c3.4,1.1,6.2,2.1,8.3,3c2.1,1,3.9,2.4,5.4,4.3c1.5,1.9,2.3,4.4,2.3,7.6
			c0,2.9-0.8,5.4-2.4,7.6c-1.6,2.2-3.8,3.9-6.6,5s-6.1,1.8-9.8,1.8c-3.7,0-7.4-0.7-10.9-2.2c-3.5-1.5-6.6-3.4-9.1-5.8l3.1-6
			c2.4,2.4,5.1,4.2,8.2,5.5c3,1.3,6,1.9,8.8,1.9c3.4,0,6.1-0.7,8-2c2-1.3,2.9-3.1,2.9-5.4c0-1.8-0.5-3.3-1.6-4.4
			c-1.1-1.2-2.4-2.1-4-2.8c-1.6-0.7-3.8-1.4-6.6-2.3c-3.4-1-6.1-2-8.3-3c-2.1-1-3.9-2.4-5.4-4.3c-1.5-1.9-2.2-4.4-2.2-7.5
			c0-2.7,0.7-5.1,2.2-7.2c1.5-2.1,3.6-3.7,6.3-4.8c2.7-1.1,5.9-1.7,9.4-1.7c3,0,6,0.4,9,1.3c2.9,0.9,5.5,2.1,7.8,3.6l-2.9,6.2
			C235.7,416,233.3,414.8,230.7,414.1z"/>
		<path d="M295.8,457.7l-5.4-12.3h-26.8l-5.3,12.3H251l22.6-50.8h7.3l22.5,50.8H295.8z M266.4,439h21.3L277,414.3L266.4,439z"/>
		<path d="M305.9,406.9h7.5l16.8,43l16.8-43h7.3l-20.6,50.8h-7.3L305.9,406.9z"/>
		<path d="M367.3,406.9h7v44.5h22.2v6.3h-29.2V406.9z"/>
		<path d="M429,453.9c-2.7,2.7-6.4,4.1-11.1,4.1c-2.9,0-5.5-0.6-8-1.9c-2.5-1.3-4.6-3-6.5-5.4l3.4-5.4c1.6,1.9,3.4,3.3,5.3,4.3
			c1.9,1,3.8,1.5,5.7,1.5c2.6,0,4.6-0.8,6-2.4c1.4-1.6,2.1-3.8,2.1-6.7v-28.8H408v-6.4h25v35.4C433,447.3,431.7,451.1,429,453.9z"/>
		<path d="M451.8,406.9h35.3v6.3h-28.3v15.7h25.3v6.3h-25.3v16.2H488v6.3h-36.2V406.9z"/>
		<path d="M497.8,406.9h7.5l16.8,43l16.8-43h7.3l-20.6,50.8h-7.3L497.8,406.9z"/>
		<path d="M559.2,406.9h7v50.8h-7V406.9z"/>
		<path d="M616.2,414.3c-2.6-1.1-5.2-1.7-7.9-1.7c-3.6,0-6.9,0.9-9.9,2.6c-3,1.7-5.4,4.1-7.1,7.1c-1.7,3-2.6,6.3-2.6,9.8
			c0,3.5,0.9,6.8,2.6,9.8c1.7,3,4.1,5.4,7.1,7.1c3,1.7,6.3,2.6,9.9,2.6c2.7,0,5.3-0.5,7.8-1.6c2.6-1.1,4.8-2.6,6.8-4.5l4.2,4.6
			c-2.6,2.5-5.5,4.5-8.9,5.9c-3.4,1.4-6.8,2.1-10.3,2.1c-4.8,0-9.3-1.1-13.3-3.4c-4-2.3-7.2-5.4-9.5-9.4c-2.3-4-3.5-8.3-3.5-13.1
			c0-4.7,1.2-9.1,3.5-13c2.3-3.9,5.6-7.1,9.6-9.3c4.1-2.3,8.5-3.4,13.4-3.4c3.5,0,7,0.7,10.3,2c3.3,1.3,6.2,3.2,8.6,5.6l-4.1,5
			C621,417,618.7,415.4,616.2,414.3z M613.3,392.2l7,3l-9,7.1l-5.7-0.7L613.3,392.2z"/>
	</g>
	<g>
		<path d="M151.4,525.3l-3.8-8.7h-18.9l-3.7,8.7h-5.2l15.9-35.9h5.1l15.9,35.9H151.4z M130.6,512.2h15.1l-7.6-17.4L130.6,512.2z"/>
		<path d="M165.8,489.5h4.9v31.4h15.7v4.5h-20.6V489.5z"/>
		<path d="M196.5,489.5h24.9v4.5h-20V505h17.9v4.5h-17.9v11.4H222v4.5h-25.5V489.5z"/>
		<path d="M263.8,525.3h-5.9l-12.6-16.5l-6.6,7.2v9.4h-4.9v-35.9h4.9v20.1l18.3-20.1h5.9l-14.2,15.5L263.8,525.3z"/>
		<path d="M289.6,494.6c-1.8-0.5-3.4-0.8-4.9-0.8c-2.1,0-3.7,0.4-5,1.2c-1.2,0.8-1.9,1.9-1.9,3.3c0,1.3,0.4,2.3,1.1,3.1
			c0.8,0.8,1.7,1.4,2.8,1.9c1.1,0.5,2.6,1,4.6,1.6c2.4,0.8,4.4,1.5,5.9,2.2c1.5,0.7,2.8,1.7,3.8,3c1.1,1.3,1.6,3.1,1.6,5.4
			c0,2-0.6,3.8-1.7,5.4c-1.1,1.5-2.7,2.7-4.7,3.6c-2,0.8-4.3,1.3-6.9,1.3c-2.6,0-5.2-0.5-7.7-1.5c-2.5-1-4.6-2.4-6.5-4.1l2.2-4.3
			c1.7,1.7,3.6,3,5.8,3.9c2.1,0.9,4.2,1.4,6.2,1.4c2.4,0,4.3-0.5,5.7-1.4c1.4-0.9,2.1-2.2,2.1-3.8c0-1.3-0.4-2.3-1.1-3.1
			c-0.8-0.8-1.7-1.5-2.8-1.9c-1.1-0.5-2.7-1-4.6-1.6c-2.4-0.7-4.3-1.4-5.8-2.1c-1.5-0.7-2.8-1.7-3.8-3c-1-1.3-1.6-3.1-1.6-5.3
			c0-1.9,0.5-3.6,1.6-5.1c1.1-1.5,2.5-2.6,4.5-3.4c1.9-0.8,4.1-1.2,6.7-1.2c2.2,0,4.3,0.3,6.3,0.9c2.1,0.6,3.9,1.5,5.5,2.5l-2,4.4
			C293.1,495.9,291.4,495.1,289.6,494.6z"/>
		<path d="M335.5,525.3l-3.8-8.7h-18.9l-3.7,8.7h-5.2l15.9-35.9h5.1l15.9,35.9H335.5z M314.8,512.2h15.1l-7.6-17.4L314.8,512.2z"/>
		<path d="M375.4,489.5h4.9v35.9h-5l-20.5-27.8v27.8h-4.9v-35.9h5l20.5,27.8V489.5z"/>
		<path d="M418.5,491.8c2.8,1.6,5,3.7,6.6,6.4s2.4,5.8,2.4,9.2s-0.8,6.4-2.4,9.2c-1.6,2.7-3.9,4.9-6.7,6.4c-2.8,1.6-6,2.3-9.5,2.3
			h-14.4v-35.9H409C412.5,489.5,415.7,490.2,418.5,491.8z M415.9,519.1c2-1.2,3.6-2.8,4.8-4.8c1.2-2,1.8-4.3,1.8-6.9
			c0-2.6-0.6-4.9-1.8-6.9c-1.2-2-2.8-3.7-4.9-4.8c-2.1-1.2-4.4-1.8-6.9-1.8h-9.6v27h9.8C411.6,520.9,413.9,520.3,415.9,519.1z"/>
		<path d="M464.2,525.3l-3.8-8.7h-18.9l-3.7,8.7h-5.2l15.9-35.9h5.1l15.9,35.9H464.2z M443.4,512.2h15.1l-7.6-17.4L443.4,512.2z"/>
		<path d="M501.7,525.3l-7.1-11.3c-0.8,0.1-1.5,0.1-2,0.1h-9.1v11.2h-4.9v-35.9h14c4.5,0,8.1,1,10.5,3.2c2.5,2.1,3.7,5.1,3.7,8.9
			c0,2.9-0.7,5.3-2,7.3c-1.3,2-3.3,3.4-5.8,4.3l8.4,12.1H501.7z M492.6,509.7c3.1,0,5.4-0.7,7.1-2c1.6-1.3,2.5-3.3,2.5-6
			c0-2.6-0.8-4.5-2.5-5.8c-1.6-1.3-4-2-7.1-2h-9.1v15.8H492.6z"/>
	</g>
	<g>
		
			<rect x="309.2" y="317" transform="matrix(-1.836970e-16 1 -1 -1.836970e-16 944.1476 317.0155)" class="st0" width="8.7" height="627.1"/>
	</g>
	<g>
		<path class="st1" d="M330,659.1l-15.7,27.5v14.4h-5.7v-14.1l-15.9-27.8h5.9l12.9,21.4l12.7-21.4H330z"/>
	</g>
	<g>
		<g>
			
				<rect x="309.2" y="356.1" transform="matrix(-1.836970e-16 1 -1 -1.836970e-16 863.421 236.2888)" class="st0" width="8.7" height="387.6"/>
		</g>
	</g>
	<g>
		<path class="st1" d="M293.3,571.8h6.7l11,15.6l11.1-15.6h6.8l-14.2,20.1l15.4,21.8h-6.9L311,596.8l-12,16.9h-6.8l15.3-21.5
			L293.3,571.8z"/>
	</g>
	<rect x="653.5" y="-0.1" class="st0" width="8.7" height="387.6"/>
	<g>
		<path class="st1" d="M677.2,165.6h6.7l11,15.6l11.1-15.6h6.8l-14.2,20.1l15.4,21.8h-6.9l-12.1-16.9l-12,16.9h-6.8l15.3-21.5
			L677.2,165.6z"/>
	</g>
	<rect x="669.6" y="406.3" class="st0" width="7" height="50.8"/>
	<rect x="677.6" y="457.1" class="st0" width="7" height="31.4"/>
	<g>
		<path class="st1" d="M709.9,438.4l-2.2-5.1h-11l-2.2,5.1h-3l9.3-20.9h3l9.3,20.9H709.9z M697.8,430.8h8.8l-4.4-10.2L697.8,430.8z"
			/>
	</g>
	<g>
		<path class="st1" d="M708.8,464.5c1.2,0.9,1.8,2.2,1.8,3.8c0,1.2-0.3,2.2-1,3s-1.6,1.4-2.8,1.7c1.5,0.2,2.6,0.8,3.4,1.7
			c0.8,0.9,1.2,2.1,1.2,3.5c0,1.8-0.7,3.2-2,4.2c-1.3,1-3.2,1.5-5.6,1.5h-9.1v-20.9h8.9C705.9,463.1,707.5,463.6,708.8,464.5z
			 M706.6,471.2c0.7-0.5,1.1-1.3,1.1-2.3c0-1-0.4-1.8-1.1-2.3c-0.7-0.5-1.7-0.8-3-0.8h-5.9v6.3h5.9
			C704.9,472,705.9,471.7,706.6,471.2z M707.2,480.5c0.9-0.6,1.3-1.5,1.3-2.6c0-1.1-0.4-1.9-1.3-2.5c-0.9-0.6-2.1-0.9-3.6-0.9h-5.9
			v6.8h5.9C705.1,481.4,706.3,481.1,707.2,480.5z"/>
	</g>
	<g>
		<rect x="663" y="387.5" class="st0" width="7" height="19.4"/>
	</g>
	<g>
		<path class="st1" d="M693.9,389c-1.1-0.5-2.1-0.7-3.3-0.7c-1.5,0-2.8,0.4-4.1,1.1s-2.2,1.7-2.9,2.9c-0.7,1.2-1.1,2.6-1.1,4.1
			c0,1.5,0.4,2.8,1.1,4c0.7,1.2,1.7,2.2,2.9,2.9c1.2,0.7,2.6,1.1,4.1,1.1c1.1,0,2.2-0.2,3.2-0.7c1.1-0.4,2-1.1,2.8-1.8l1.7,1.9
			c-1.1,1-2.3,1.8-3.7,2.4c-1.4,0.6-2.8,0.9-4.2,0.9c-2,0-3.8-0.5-5.5-1.4s-3-2.2-3.9-3.9c-1-1.6-1.4-3.4-1.4-5.4
			c0-2,0.5-3.7,1.5-5.4c1-1.6,2.3-2.9,4-3.8s3.5-1.4,5.5-1.4c1.5,0,2.9,0.3,4.2,0.8c1.4,0.5,2.5,1.3,3.5,2.3l-1.7,2.1
			C695.8,390.1,694.9,389.5,693.9,389z"/>
	</g>
</g>
<g id="Layer_2">
	<g>
		<polygon points="410.4,193.6 362,96.8 313.6,0 265.2,96.8 216.8,193.6 120,387.2 216.8,387.2 265.2,290.4 313.6,193.6 362,290.4 
			410.4,387.2 507.2,387.2 		"/>
		<polygon class="st2" points="458.8,96.8 410.4,0 362,96.8 313.6,193.6 265.2,96.8 216.8,0 168.4,96.8 120,193.6 120,387.2 
			216.8,193.6 265.2,290.4 313.6,387.2 362,290.4 410.4,193.6 507.2,387.2 507.2,193.6 		"/>
		<circle cx="313.6" cy="290.5" r="43.5"/>
	</g>
</g>
</svg>
