<?xml version="1.0" encoding="utf-8"?>
<!-- Generator: Adobe Illustrator 23.0.2, SVG Export Plug-In . SVG Version: 6.00 Build 0)  -->
<svg version="1.1" id="Layer_1" xmlns="http://www.w3.org/2000/svg" xmlns:xlink="http://www.w3.org/1999/xlink" x="0px" y="0px"
	 viewBox="0 0 192 192" style="enable-background:new 0 0 192 192;" xml:space="preserve">
<style type="text/css">
	.st0{fill:#263238;}
	.st1{fill:#FAFAFA;}
</style>
<g>
	<rect x="0.01" y="0.22" class="st0" width="192" height="192"/>
</g>
<g>
	<path class="st1" d="M160.01,32.22h-116c-6.63,0-12,5.37-12,12v104c0,6.63,5.37,12,12,12h116v-4h-116c-2.95,0-5.54-1.61-6.92-4
		c-0.69-1.18-1.08-2.55-1.08-4s0.39-2.82,1.08-4c1.38-2.39,3.97-4,6.92-4h116V32.22z"/>
	<path class="st1" d="M40.07,147.83c-0.23,2.39,1.64,4.39,3.98,4.39h111.93v-2.35v-0.65v-2v-1.52v-1.48H44.23
		C42.14,144.23,40.27,145.76,40.07,147.83z"/>
</g>
</svg>
