<?xml version="1.0" encoding="utf-8"?>
<!-- Generator: Adobe Illustrator 23.0.2, SVG Export Plug-In . SVG Version: 6.00 Build 0)  -->
<svg version="1.1" id="Layer_1" xmlns="http://www.w3.org/2000/svg" xmlns:xlink="http://www.w3.org/1999/xlink" x="0px" y="0px"
	 viewBox="0 0 300 300" style="enable-background:new 0 0 300 300;" xml:space="preserve">
<g>
	<g>
		<path d="M40.78,40.78v218.44h218.44V40.78H40.78z M155.3,165c0,2.91-2.36,5.28-5.28,5.28c-2.91,0-5.28-2.36-5.28-5.28v0
			c0-2.91,2.36-5.28,5.28-5.28C152.93,159.73,155.3,162.09,155.3,165L155.3,165z M217.22,150v67.22v0l-0.01-0.01l-33.6-33.6L150,150
			l-33.61,33.61l-33.61,33.61l0,0V150V82.78l33.61,33.61l6.29,6.29l-39.89,94.54L116.39,150l11.2-22.41l0.45-0.9L150,82.78
			l21.95,43.91l0.45,0.9l11.2,22.41l33.61,67.22l-39.9-94.54l6.29-6.29l33.61-33.61V150z"/>
	</g>
	<g>
		<g>
			<path d="M149.98,281.48c-72.4,0-131.3-58.98-131.3-131.48s58.9-131.48,131.3-131.48S281.28,77.5,281.28,150
				S222.38,281.48,149.98,281.48z M149.98,21.56C79.25,21.56,21.71,79.17,21.71,150s57.54,128.44,128.27,128.44
				S278.25,220.83,278.25,150S220.71,21.56,149.98,21.56z"/>
		</g>
		<g>
			<polygon points="0,150 10.35,155.17 20.69,160.35 20.69,150 20.69,139.65 10.35,144.83 			"/>
		</g>
		<g>
			<polygon points="279.31,139.65 279.31,150 279.31,160.35 289.65,155.17 300,150 289.65,144.83 			"/>
		</g>
		<g>
			<polygon points="160.35,20.69 155.17,10.35 150,0 144.83,10.35 139.65,20.69 150,20.69 			"/>
		</g>
		<g>
			<polygon points="139.65,279.31 144.83,289.65 150,300 155.17,289.65 160.35,279.31 150,279.31 			"/>
		</g>
	</g>
</g>
</svg>
