<svg id="Layer_1" data-name="Layer 1" xmlns="http://www.w3.org/2000/svg" viewBox="0 0 319.67 319.67"><defs><style>.cls-1{fill:#fff;}.cls-2{fill:none;stroke:#000;stroke-miterlimit:10;stroke-width:3.24px;}</style></defs><title>logoBW</title><rect x="44.1" y="44.12" width="231.44" height="231.44"/><polygon class="cls-1" points="159.81 159.84 124 195.65 88.19 231.46 88.19 159.84 88.19 88.21 124 124.02 159.81 159.84"/><polygon class="cls-1" points="159.81 159.84 195.63 195.65 231.44 231.46 231.44 159.84 231.44 88.21 195.63 124.02 159.81 159.84"/><ellipse class="cls-2" cx="159.81" cy="159.83" rx="138.29" ry="138.48"/><path d="M21.21,150.59v18.82l-9.57-4.79L2.4,160l9.24-4.62,9.57-4.79m1-1.61-11,5.51L.17,160l11,5.51,11,5.51V149Z" transform="translate(-0.17 -0.17)"/><path d="M298.79,150.59l9.57,4.79L317.6,160l-9.24,4.62-9.57,4.79V150.59m-1-1.61v22l11-5.51,11-5.51-11-5.51-11-5.51Z" transform="translate(-0.17 -0.17)"/><path d="M160,2.4l4.62,9.24,4.79,9.57H150.59l4.79-9.57L160,2.4m0-2.23-5.51,11-5.51,11h22l-5.51-11L160,.17Z" transform="translate(-0.17 -0.17)"/><path d="M169.41,298.79l-4.79,9.57L160,317.6l-4.62-9.24-4.79-9.57h18.82m1.61-1H149l5.51,11,5.51,11,5.51-11,5.51-11Z" transform="translate(-0.17 -0.17)"/><polygon points="159.81 158.75 124 195.1 88.19 231.46 88.19 231.46 131.15 129.65 131.15 129.65 159.81 158.75"/><polygon points="159.81 158.75 195.63 195.1 231.44 231.46 231.44 231.46 188.47 129.65 188.47 129.65 159.81 158.75"/><path class="cls-1" d="M160,170.36a5.62,5.62,0,0,0-5.62,5.62h0a5.62,5.62,0,0,0,11.24,0h0A5.62,5.62,0,0,0,160,170.36Z" transform="translate(-0.17 -0.17)"/><polygon class="cls-1" points="231.44 231.46 195.63 159.84 159.81 88.21 124 159.84 88.19 231.46 159.81 159.84 231.44 231.46"/><path class="cls-1" d="M165.62,176h0a5.62,5.62,0,0,0-11.24,0h0a5.62,5.62,0,0,0,11.24,0Z" transform="translate(-0.17 -0.17)"/><polygon points="0 159.83 11.02 165.35 22.05 170.86 22.05 159.83 22.05 148.81 11.02 154.32 0 159.83"/><polygon points="297.62 148.81 297.62 159.83 297.62 170.86 308.64 165.35 319.67 159.83 308.64 154.32 297.62 148.81"/><polygon points="170.86 22.05 165.35 11.02 159.83 0 154.32 11.02 148.81 22.05 159.83 22.05 170.86 22.05"/><polygon points="148.81 297.62 154.32 308.64 159.83 319.67 165.35 308.64 170.86 297.62 159.83 297.62 148.81 297.62"/></svg>