<?xml version="1.0" encoding="utf-8"?>
<!-- Generator: Adobe Illustrator 23.0.2, SVG Export Plug-In . SVG Version: 6.00 Build 0)  -->
<svg version="1.1" id="Layer_1" xmlns="http://www.w3.org/2000/svg" xmlns:xlink="http://www.w3.org/1999/xlink" x="0px" y="0px"
	 viewBox="0 0 192 192" style="enable-background:new 0 0 192 192;" xml:space="preserve">
<style type="text/css">
	.st0{fill:#263238;}
	.st1{fill:#FAFAFA;}
</style>
<g>
	<rect x="0.01" y="0.11" class="st0" width="192" height="192"/>
</g>
<g>
	<path class="st1" d="M160.01,91.19h-15.02c-2.31-23.26-20.8-41.75-44.06-44.06V32.11h-9.85v15.01
		c-23.26,2.31-41.75,20.8-44.06,44.06H32.01v9.85h15.01c2.31,23.26,20.8,41.75,44.06,44.06v15.01h9.85v-15.01
		c23.26-2.31,41.75-20.8,44.06-44.06h15.02V91.19z M96.01,126.54c-16.8,0-30.43-13.62-30.43-30.43c0-16.8,13.62-30.43,30.43-30.43
		s30.43,13.62,30.43,30.43C126.43,112.91,112.81,126.54,96.01,126.54z"/>
	<circle class="st1" cx="96.01" cy="96.11" r="18.81"/>
</g>
</svg>
