<?xml version="1.0" encoding="utf-8"?>
<!-- Generator: Adobe Illustrator 23.0.2, SVG Export Plug-In . SVG Version: 6.00 Build 0)  -->
<svg version="1.1" xmlns="http://www.w3.org/2000/svg" xmlns:xlink="http://www.w3.org/1999/xlink" x="0px" y="0px"
	 viewBox="0 0 64 64" style="enable-background:new 0 0 64 64;" xml:space="preserve">
<style type="text/css">
	.st0{display:none;}
	.st1{display:inline;}
	.st2{fill:#F4413B;}
</style>
<g id="Layer_1" class="st0">
	<g class="st1">
		<path d="M54.6,9.4C48.8,3.6,40.8,0,32,0C23.2,0,15.2,3.6,9.4,9.4C3.6,15.2,0,23.2,0,32c0,8.8,3.6,16.8,9.4,22.6
			C15.2,60.4,23.2,64,32,64c8.8,0,16.8-3.6,22.6-9.4C60.4,48.8,64,40.8,64,32C64,23.2,60.4,15.2,54.6,9.4z M33.4,17.5
			c6.9,0.2,12.9,6.4,12.8,13.2c0,0.2,0,0.3,0,0.5c0,0.5,0,1.1-0.8,1.1c-0.9,0-0.7-0.9-0.8-1.5c0-0.1,0-0.1,0-0.2
			c-0.9-7.1-4.2-10.5-11.4-11.6c-0.6-0.1-1.5,0-1.5-0.7C31.8,17.2,32.9,17.6,33.4,17.5z M42.6,30.4c0,0.3-0.2,0.5-0.5,0.6
			c-0.8,0.1-0.9-0.3-1-0.8c0-0.2,0-0.4-0.1-0.6c-0.7-4.3-2.3-5.9-6.7-6.9c-0.7-0.1-1.7-0.1-1.5-1c0.2-0.9,1.1-0.6,1.8-0.5
			c4.4,0.5,8.1,4.3,8,8.5C42.6,29.7,42.7,30.1,42.6,30.4z M38.9,29.8c-0.1,0.1-0.2,0.1-0.4,0.1c-0.2,0-0.4-0.1-0.6-0.2
			c-0.1-0.2-0.2-0.4-0.2-0.6c-0.2-1.8-1.2-2.8-3-3.1c-0.5-0.1-1.1-0.3-0.8-1c0.2-0.5,0.6-0.5,1.1-0.5c2-0.1,4.3,2.3,4.2,4.3
			C39.3,29.1,39.2,29.6,38.9,29.8z M46.3,42.3c-0.8,2.1-3.4,4.2-5.6,4.2c-0.3-0.1-1-0.2-1.5-0.4c-8-3.4-14.3-8.6-18.5-15.6
			c-1-1.6-1.8-3.3-2.6-5.2c-1.4-3.3,0.1-6,3.5-7.2c0.6-0.2,1.2-0.2,1.8,0c1.5,0.5,5.2,5.6,5.3,7.1c0.1,1.2-0.7,1.8-1.5,2.3
			c-1,0.7-1.3,1.4-1.3,2.3c0,0.4,0.2,0.9,0.4,1.4c1.5,3.2,3.9,5.4,7.1,6.8c1.2,0.5,2.3,0.5,3.1-0.7c1.4-2.1,3.1-2,5-0.7
			c0.9,0.7,1.9,1.3,2.8,2C45.5,39.5,47,40.2,46.3,42.3z"/>
	</g>
</g>
<g id="Layer_2" class="st0">
	<g class="st1">
		<path d="M39.3,31.9c-0.9-0.6-1.9-1-3.1-1.4c-1.2-0.4-2.6-0.7-4-1.1c-1.2-0.3-2-0.5-2.5-0.6c-0.5-0.1-1-0.3-1.5-0.6
			c-0.5-0.2-0.8-0.5-1.1-0.8c-0.2-0.3-0.4-0.6-0.4-1.1c0-0.7,0.4-1.3,1.1-1.8c0.8-0.5,1.9-0.8,3.2-0.8c1.4,0,2.4,0.2,3.1,0.7
			c0.6,0.5,1.2,1.2,1.6,2c0.4,0.7,0.7,1.2,1.1,1.4c0.4,0.3,0.9,0.5,1.6,0.5c0.7,0,1.4-0.3,1.9-0.8c0.5-0.5,0.7-1.1,0.7-1.8
			c0-0.7-0.2-1.4-0.6-2.1c-0.4-0.7-1-1.4-1.8-2c-0.8-0.6-1.8-1.1-3-1.5c-1.2-0.4-2.6-0.6-4.3-0.6c-2,0-3.8,0.3-5.4,0.8
			c-1.5,0.6-2.7,1.4-3.5,2.5c-0.8,1.1-1.2,2.3-1.2,3.7c0,1.4,0.4,2.7,1.2,3.7c0.8,1,1.8,1.7,3.1,2.3c1.3,0.5,2.9,1,4.8,1.4
			c1.4,0.3,2.5,0.6,3.4,0.8c0.8,0.2,1.5,0.6,1.9,1.1c0.5,0.4,0.7,1,0.7,1.7c0,0.9-0.4,1.7-1.4,2.3c-0.9,0.6-2.2,1-3.7,1
			c-1.1,0-2-0.2-2.7-0.5c-0.7-0.3-1.2-0.7-1.5-1.2c-0.4-0.5-0.7-1.1-1.1-1.9c-0.3-0.7-0.6-1.2-1.1-1.6c-0.4-0.4-1-0.6-1.6-0.6
			c-0.8,0-1.4,0.2-1.9,0.7c-0.5,0.5-0.8,1.1-0.8,1.7c0,1.1,0.4,2.2,1.2,3.3c0.8,1.1,1.8,2,3,2.7c1.7,0.9,3.9,1.4,6.5,1.4
			c2.2,0,4.1-0.3,5.7-1c1.6-0.7,2.9-1.6,3.7-2.8c0.8-1.2,1.3-2.6,1.3-4.1c0-1.3-0.2-2.3-0.7-3.2C40.9,33.2,40.2,32.5,39.3,31.9z"/>
		<path d="M32,0C14.3,0,0,14.3,0,32c0,17.7,14.3,32,32,32c17.7,0,32-14.3,32-32C64,14.3,49.7,0,32,0z M39.8,51.9
			c-1.8,0-3.5-0.5-5-1.3c-1.1,0.2-2.2,0.3-3.3,0.3c-10.1,0-18.3-8.2-18.3-18.3c0-1.3,0.1-2.5,0.4-3.7c-0.9-1.6-1.5-3.4-1.5-5.4
			c0-5.9,4.7-10.6,10.6-10.6c2.1,0,4,0.6,5.6,1.6c1-0.2,2.1-0.3,3.1-0.3c10.1,0,18.3,8.2,18.3,18.3c0,1.3-0.1,2.7-0.4,3.9
			c0.7,1.4,1.1,3,1.1,4.7C50.4,47.2,45.7,51.9,39.8,51.9z"/>
	</g>
</g>
<g id="Layer_3">
	<g>
		<path class="st2" d="M32,0C14.3,0,0,14.3,0,32s14.3,32,32,32s32-14.3,32-32S49.7,0,32,0z M50.5,19.7L32,35.7l-18.5-16H50.5z
			 M12.3,20.9l13.5,11.7L12.3,44.3V20.9z M13.5,45.5L27,33.9l5,4.1l4.9-4.1l13.6,11.6H13.5z M51.7,44.3L38.2,32.6l13.5-11.7V44.3z"
			/>
	</g>
</g>
</svg>
