<?xml version="1.0" encoding="utf-8"?>
<!-- Generator: Adobe Illustrator 23.0.2, SVG Export Plug-In . SVG Version: 6.00 Build 0)  -->
<svg version="1.1" id="Layer_1" xmlns="http://www.w3.org/2000/svg" xmlns:xlink="http://www.w3.org/1999/xlink" x="0px" y="0px"
	 viewBox="0 0 251 440" style="enable-background:new 0 0 251 440;" xml:space="preserve">
<style type="text/css">
	.st0{fill:none;stroke:#B8BF08;stroke-width:2;stroke-miterlimit:10;}
	.st1{fill:none;stroke:#2294F2;stroke-width:2;stroke-miterlimit:10;}
	.st2{fill:none;stroke:#2294F2;stroke-linecap:round;stroke-linejoin:bevel;stroke-miterlimit:10;}
	.st3{fill:#A0A60F;}
	.st4{fill:#B8BF08;}
</style>
<ellipse class="st0" cx="125.5" cy="201.53" rx="119.43" ry="119.01"/>
<ellipse class="st0" cx="125.5" cy="287.18" rx="114.37" ry="113.96"/>
<ellipse class="st0" cx="125.5" cy="108.03" rx="107.19" ry="106.81"/>
<ellipse class="st0" cx="17.53" cy="181.05" rx="9.54" ry="9.51"/>
<ellipse class="st0" cx="233.46" cy="181.05" rx="9.54" ry="9.51"/>
<g>
	<polygon class="st0" points="121.08,279.87 127.19,312.08 133.3,344.29 121.08,344.29 108.86,344.29 114.97,312.08 	"/>
	<polygon class="st0" points="133.3,279.87 139.42,312.08 145.53,344.29 133.3,344.29 121.08,344.29 127.19,312.08 	"/>
</g>
<ellipse class="st0" cx="66.06" cy="265.7" rx="39.88" ry="39.74"/>
<polygon class="st0" points="74.26,322.99 66.3,352.6 58.34,382.2 36.59,360.53 14.84,338.86 44.55,330.93 "/>
<g>
	<polygon class="st0" points="84.32,382.2 91.19,394.05 98.05,405.89 84.32,405.89 70.6,405.89 77.46,394.05 	"/>
	<polygon class="st0" points="111.77,382.2 118.64,394.05 125.5,405.89 111.77,405.89 98.05,405.89 104.91,394.05 	"/>
	<polygon class="st0" points="139.23,382.2 146.09,394.05 152.95,405.89 139.23,405.89 125.5,405.89 132.36,394.05 	"/>
	<polygon class="st0" points="166.68,382.2 173.54,394.05 180.4,405.89 166.68,405.89 152.95,405.89 159.81,394.05 	"/>
</g>
<g>
	<polygon class="st1" points="139.23,437.79 132.36,425.94 125.5,414.1 139.23,414.1 152.95,414.1 146.09,425.94 	"/>
	<polygon class="st1" points="111.77,437.79 104.91,425.94 98.05,414.1 111.77,414.1 125.5,414.1 118.64,425.94 	"/>
	<polygon class="st1" points="84.32,437.79 77.46,425.94 70.6,414.1 84.32,414.1 98.05,414.1 91.19,425.94 	"/>
	<polygon class="st1" points="56.87,437.79 50.01,425.94 43.15,414.1 56.87,414.1 70.6,414.1 63.74,425.94 	"/>
</g>
<polygon class="st0" points="176.74,322.99 184.7,352.6 192.66,382.2 214.41,360.53 236.16,338.86 206.45,330.93 "/>
<rect x="29.52" y="229.29" class="st2" width="73.07" height="72.81"/>
<rect x="148.4" y="229.16" class="st2" width="73.07" height="72.81"/>
<polygon class="st2" points="102.63,265.62 66.1,283.76 29.57,301.91 29.57,265.62 29.57,229.32 66.1,247.47 "/>
<ellipse class="st2" cx="66.06" cy="265.7" rx="36.53" ry="36.41"/>
<ellipse class="st2" cx="66.06" cy="265.7" rx="51.45" ry="51.26"/>
<ellipse class="st2" cx="66.19" cy="265.57" rx="16.36" ry="16.3"/>
<path class="st3" d="M221.07,301.81H203L194,283.74l-1.32-2.65c-0.25-0.77-7.68-15.41-7.68-15.41v-0.24l0.01-0.03h-0.15l0.07,0.15
	l-9,18.06l-9.06,18.19h-18.06l7.23-14.5l10.83-21.75l0.04-0.07l0.04-0.07l8.96-17.98l9.03-18.12l0.06,0.12l8.97,18l8.96,17.98
	l0.07,0.15l0.02,0.04L221.07,301.81z"/>
<path class="st4" d="M221.18,265.92l-0.18-0.35l-0.07-0.15l-8.94-17.94l-5.73-11.49l-3.32-6.67l-1.77,3.55l-7.26,14.57l-0.85,1.71
	l-8.11,16.27l-0.01,0.03v0.24l-0.06-0.12l-0.07-0.15l-8.08-16.22l-0.88-1.76l-7.24-14.52l-1.79-3.6l-3.39,6.81l-5.6,11.24l-9,18.06
	l-0.07,0.15l-0.06,0.12l0,0v36.12h0.06l7.23-14.5l10.83-21.75l0,0c0-0.05,0-0.09,0-0.14v0h0.07l-0.04,0.07l7.21,14.48l1.82,3.65
	l9.06,18.19l9-18.07l1.88-3.77l7.15-14.37l-0.02-0.04l-0.07-0.15h0.19v0c0,0.12,0,0.24,0,0.37l10.77,21.61l7.18,14.41h0.18
	L221.18,265.92L221.18,265.92z"/>
<path class="st3" d="M193.02,283.61c0,4.48-3.62,8.11-8.08,8.11c-4.46,0-8.08-3.63-8.08-8.11c0-4.48,3.62-8.11,8.08-8.11
	c2.74,0,5.16,1.37,6.62,3.46l1.06,2.13C192.88,281.89,193.02,282.74,193.02,283.61z"/>
<ellipse class="st0" cx="184.94" cy="265.7" rx="39.88" ry="39.74"/>
</svg>
