<?xml version="1.0" encoding="utf-8"?>
<!-- Generator: Adobe Illustrator 23.0.2, SVG Export Plug-In . SVG Version: 6.00 Build 0)  -->
<svg version="1.1" id="Layer_1" xmlns="http://www.w3.org/2000/svg" xmlns:xlink="http://www.w3.org/1999/xlink" x="0px" y="0px"
	 viewBox="0 0 360 360" style="enable-background:new 0 0 360 360;" xml:space="preserve">
<style type="text/css">
	.st0{display:none;}
	.st1{display:inline;}
	.st2{fill:#FFFFFF;}
	.st3{fill:url(#SVGID_1_);}
	.st4{fill:url(#SVGID_2_);}
</style>
<g class="st0">
	<g class="st1">
		<g>
			<path class="st2" d="M68.9,25.3v222.3h222.3V25.3H68.9z M185.4,151.7c0,3-2.4,5.4-5.4,5.4s-5.4-2.4-5.4-5.4l0,0
				c0-3,2.4-5.4,5.4-5.4S185.4,148.7,185.4,151.7L185.4,151.7z M248.4,136.4v68.4l0,0l0,0l-34.2-34.2L180,136.4l-34.2,34.2
				l-34.2,34.2l0,0v-68.4V68l34.2,34.2l6.4,6.4l-40.6,96.2l34.2-68.4l11.4-22.8l0.5-0.9L180,68l22.3,44.7l0.5,0.9l11.4,22.8
				l34.2,68.4l-40.6-96.2l6.4-6.4L248.4,68L248.4,136.4L248.4,136.4z"/>
		</g>
		<g>
			<g>
				<path class="st2" d="M180,270.2c-73.7,0-133.6-60-133.6-133.8S106.3,2.6,180,2.6s133.6,60,133.6,133.8S253.7,270.2,180,270.2z
					 M180,5.7c-72,0-130.5,58.6-130.5,130.7S108,267.1,180,267.1s130.5-58.6,130.5-130.7S251.9,5.7,180,5.7z"/>
			</g>
			<g>
				<polygon class="st2" points="27.4,136.4 37.9,141.7 48.4,147 48.4,136.4 48.4,125.9 37.9,131.2 				"/>
			</g>
			<g>
				<polygon class="st2" points="311.6,125.9 311.6,136.4 311.6,147 322.1,141.7 332.6,136.4 322.1,131.2 				"/>
			</g>
			<g>
				<polygon class="st2" points="190.5,4.9 185.3,-5.7 180,-16.2 174.7,-5.7 169.5,4.9 180,4.9 				"/>
			</g>
			<g>
				<polygon class="st2" points="169.5,268 174.7,278.5 180,289.1 185.3,278.5 190.5,268 180,268 				"/>
			</g>
		</g>
		<g>
			<g>
				<path class="st2" d="M0,300.5h4.1l13,24.9L30,300.5h4v33.2h-3V305l-13,25.1h-1.8L3.2,305v28.7H0V300.5z"/>
				<path class="st2" d="M43.9,300.6h3.3v33.2h-3.3C43.9,333.7,43.9,300.6,43.9,300.6z"/>
				<path class="st2" d="M57.1,300.6h3.3v30.2H75v2.9H57.1V300.6z"/>
				<path class="st2" d="M102.3,302.5c2.6,1.5,4.7,3.5,6.3,6.1c1.6,2.6,2.3,5.4,2.3,8.4s-0.8,5.9-2.3,8.5c-1.5,2.6-3.6,4.7-6.3,6.2
					c-2.6,1.5-5.5,2.3-8.7,2.3s-6.1-0.8-8.7-2.3s-4.7-3.6-6.3-6.2c-1.5-2.6-2.3-5.4-2.3-8.5c0-3.1,0.8-5.9,2.3-8.4
					c1.5-2.6,3.6-4.6,6.3-6.1s5.5-2.3,8.7-2.3C96.7,300.3,99.6,301,102.3,302.5z M86.6,305.1c-2.1,1.2-3.9,2.9-5.1,5
					c-1.2,2.1-1.9,4.4-1.9,7c0,2.5,0.6,4.9,1.9,7c1.3,2.1,3,3.8,5.1,5.1c2.1,1.3,4.5,1.9,7,1.9s4.8-0.6,7-1.9c2.1-1.3,3.8-3,5.1-5.1
					c1.3-2.1,1.9-4.5,1.9-7s-0.6-4.9-1.9-7c-1.3-2.1-3-3.8-5.1-5s-4.4-1.9-7-1.9C91.1,303.2,88.7,303.8,86.6,305.1z"/>
				<path class="st2" d="M131.9,304c-1.6-0.5-3.1-0.7-4.6-0.7c-2.3,0-4.1,0.4-5.5,1.3c-1.4,0.9-2.1,2.1-2.1,3.7
					c0,1.4,0.4,2.5,1.1,3.3c0.8,0.8,1.7,1.5,2.8,2c1.1,0.5,2.6,1,4.6,1.6c2.2,0.7,4.1,1.3,5.4,2c1.4,0.6,2.5,1.6,3.5,2.8
					s1.5,2.9,1.5,4.9c0,1.8-0.5,3.3-1.5,4.7s-2.4,2.4-4.2,3.2c-1.8,0.7-3.9,1.1-6.2,1.1s-4.6-0.5-6.8-1.4c-2.2-0.9-4.1-2.1-5.7-3.6
					l1.5-2.7c1.5,1.5,3.2,2.6,5.2,3.4s3.9,1.2,5.8,1.2c2.5,0,4.5-0.5,6-1.5s2.2-2.4,2.2-4.2c0-1.4-0.4-2.5-1.1-3.4
					c-0.8-0.9-1.7-1.6-2.8-2c-1.1-0.5-2.7-1-4.7-1.7c-2.2-0.7-4-1.4-5.4-2c-1.4-0.6-2.5-1.5-3.5-2.8c-0.9-1.2-1.4-2.8-1.4-4.8
					c0-1.7,0.5-3.1,1.4-4.4s2.3-2.2,4-2.9c1.7-0.7,3.7-1,5.9-1c1.8,0,3.6,0.3,5.4,0.8c1.8,0.5,3.4,1.3,4.8,2.1l-1.4,2.8
					C135,305.1,133.5,304.4,131.9,304z"/>
				<path class="st2" d="M171.2,333.7l-3.9-8.8h-18.4l-3.9,8.8h-3.5l14.9-33.2h3.4l14.9,33.2H171.2z M150.2,321.9H166l-8-17.9
					L150.2,321.9z"/>
				<path class="st2" d="M172.7,300.6h3.5l11.8,29.6l11.8-29.6h3.5l-13.6,33.2h-3.4L172.7,300.6z"/>
				<path class="st2" d="M208.7,300.6h3.3v30.2h14.6v2.9h-17.9L208.7,300.6L208.7,300.6z"/>
				<path class="st2" d="M245.4,331.3c-1.6,1.7-3.9,2.6-6.8,2.6c-1.8,0-3.4-0.4-5-1.2c-1.5-0.8-2.9-2-4-3.5l1.7-2.5
					c1,1.3,2.1,2.3,3.4,3c1.3,0.7,2.6,1,3.9,1c1.9,0,3.4-0.6,4.4-1.8c1-1.2,1.5-2.9,1.5-5.1v-20.3h-12v-3h15.3v23.4
					C247.9,327.1,247.1,329.5,245.4,331.3z"/>
				<path class="st2" d="M257.4,300.6h22.2v2.9h-18.9v11.9h16.9v2.9h-16.9v12.5h19.5v2.9h-22.8L257.4,300.6L257.4,300.6z"/>
				<path class="st2" d="M284.1,300.6h3.5l11.8,29.6l11.8-29.6h3.5l-13.6,33.2h-3.4L284.1,300.6z"/>
				<path class="st2" d="M320,300.6h3.3v33.2H320V300.6z"/>
				<path class="st2" d="M353.4,304.2c-1.7-0.7-3.5-1.1-5.4-1.1c-2.6,0-4.9,0.6-7,1.9s-3.8,2.9-5.1,5.1c-1.3,2.1-1.9,4.5-1.9,7
					s0.6,4.9,1.9,7c1.3,2.1,2.9,3.8,5.1,5.1c2.1,1.3,4.5,1.9,7,1.9c1.8,0,3.6-0.4,5.4-1.1c1.7-0.7,3.3-1.7,4.7-3l2,2.1
					c-1.6,1.5-3.5,2.7-5.6,3.6c-2.1,0.9-4.3,1.3-6.5,1.3c-3.1,0-6-0.8-8.6-2.3s-4.7-3.6-6.2-6.2c-1.5-2.6-2.3-5.4-2.3-8.5
					c0-3.1,0.8-5.9,2.3-8.4c1.5-2.6,3.6-4.6,6.3-6.1c2.6-1.5,5.5-2.3,8.7-2.3c2.2,0,4.4,0.4,6.5,1.3c2.1,0.8,3.9,2,5.5,3.5l-1.9,2.3
					C356.7,306,355.1,305,353.4,304.2z M351.9,291.2l3.3,1.4l-6,4.7l-2.8-0.3L351.9,291.2z"/>
			</g>
			<g>
				<path class="st2" d="M88.5,376.2l-2.6-5.9H73.6l-2.6,5.9h-2.3l10-22.1H81l10,22.1H88.5z M74.5,368.3H85l-5.3-12L74.5,368.3z"/>
				<path class="st2" d="M95.5,354.1h2.2v20.1h9.7v2H95.5V354.1L95.5,354.1z"/>
				<path class="st2" d="M112.3,354.1h14.8v2h-12.6v7.9h11.3v2h-11.3v8.3h13v2h-15.2C112.3,376.3,112.3,354.1,112.3,354.1z"/>
				<path class="st2" d="M150.8,376.2h-2.7l-8.4-10.8l-4.5,4.9v5.9H133v-22.1h2.2v13.5l12.3-13.5h2.7l-8.9,9.7L150.8,376.2z"/>
				<path class="st2" d="M165.2,356.4c-1.1-0.3-2.1-0.5-3-0.5c-1.5,0-2.7,0.3-3.7,0.9c-0.9,0.6-1.4,1.4-1.4,2.5
					c0,0.9,0.2,1.6,0.8,2.2c0.5,0.6,1.1,1,1.9,1.3c0.7,0.3,1.7,0.7,3,1.1c1.5,0.4,2.7,0.9,3.6,1.3c0.9,0.4,1.7,1.1,2.3,1.9
					s1,1.9,1,3.3c0,1.2-0.3,2.2-1,3.1c-0.7,0.9-1.6,1.6-2.8,2.1s-2.6,0.7-4.1,0.7s-3-0.3-4.5-0.9c-1.5-0.6-2.7-1.4-3.8-2.4l1-1.8
					c1,1,2.1,1.7,3.4,2.3c1.3,0.6,2.6,0.8,3.9,0.8c1.7,0,3-0.3,4-1s1.5-1.6,1.5-2.8c0-0.9-0.2-1.7-0.8-2.3c-0.5-0.6-1.1-1-1.9-1.4
					c-0.7-0.3-1.8-0.7-3.1-1.1c-1.5-0.5-2.7-0.9-3.6-1.3c-0.9-0.4-1.7-1-2.3-1.8s-0.9-1.9-0.9-3.2c0-1.1,0.3-2.1,0.9-2.9
					c0.6-0.8,1.5-1.5,2.7-1.9c1.1-0.4,2.5-0.7,4-0.7c1.2,0,2.4,0.2,3.6,0.5c1.2,0.4,2.3,0.8,3.2,1.4l-0.9,1.9
					C167.3,357.1,166.3,356.7,165.2,356.4z"/>
				<path class="st2" d="M192.5,376.2l-2.6-5.9h-12.3l-2.6,5.9h-2.3l10-22.1h2.3l10,22.1H192.5z M178.5,368.3H189l-5.3-12
					L178.5,368.3z"/>
				<path class="st2" d="M215.5,354.1h2.1v22.1h-2.3l-13.7-18.7v18.7h-2.2v-22.1h2.3l13.7,18.7L215.5,354.1L215.5,354.1z"/>
				<path class="st2" d="M240,355.5c1.7,1,3.1,2.3,4.1,4s1.5,3.6,1.5,5.6s-0.5,3.9-1.5,5.6s-2.4,3-4.1,4c-1.7,1-3.7,1.5-5.8,1.5
					h-8.8v-22.1h8.9C236.4,354.1,238.3,354.6,240,355.5z M238.9,373c1.4-0.8,2.5-1.9,3.3-3.3c0.8-1.4,1.2-2.9,1.2-4.6
					s-0.4-3.2-1.2-4.6c-0.8-1.4-1.9-2.5-3.3-3.3c-1.4-0.8-3-1.2-4.6-1.2h-6.7v18.2h6.8C236,374.2,237.5,373.8,238.9,373z"/>
				<path class="st2" d="M267.2,376.2l-2.6-5.9h-12.3l-2.6,5.9h-2.3l10-22.1h2.3l10,22.1H267.2z M253.2,368.3h10.6l-5.3-12
					L253.2,368.3z"/>
				<path class="st2" d="M288.8,376.2L284,369c-0.7,0-1.2,0.1-1.5,0.1h-6.1v7.2h-2.2v-22.1h8.3c2.8,0,4.9,0.6,6.4,1.9
					s2.3,3.1,2.3,5.4c0,1.8-0.4,3.4-1.3,4.6s-2.1,2.1-3.8,2.6l5.3,7.6L288.8,376.2L288.8,376.2z M282.5,367.1c2.1,0,3.7-0.5,4.9-1.4
					c1.1-1,1.7-2.3,1.7-4.2c0-1.8-0.6-3.1-1.7-4c-1.1-0.9-2.8-1.4-4.9-1.4h-6.1v11H282.5L282.5,367.1z"/>
			</g>
		</g>
	</g>
</g>
<linearGradient id="SVGID_1_" gradientUnits="userSpaceOnUse" x1="180" y1="19.9998" x2="180" y2="340.0002">
	<stop  offset="0" style="stop-color:#FC00FF"/>
	<stop  offset="1" style="stop-color:#00DBDE"/>
</linearGradient>
<path class="st3" d="M340,180l-11-5.5l-9.3-4.6c-5-69.3-60.4-124.8-129.6-129.7l-4.5-9.1L180,20l-5.5,11l-4.5,9.1
	C100.7,45,45.3,100.6,40.3,169.9l-9.3,4.6L20,180l11,5.5l9.3,4.6c5,69.3,60.4,124.8,129.7,129.7l4.5,9.1l5.5,11l5.5-11l4.5-9.1
	c69.2-5,124.6-60.4,129.6-129.7l9.3-4.6L340,180z M180,317c-75.4,0-136.8-61.5-136.8-137S104.5,43,180,43s136.8,61.5,136.8,137
	S255.4,317,180,317z"/>
<g>
	<linearGradient id="SVGID_2_" gradientUnits="userSpaceOnUse" x1="180" y1="63.4984" x2="180" y2="296.5016">
		<stop  offset="0" style="stop-color:#FC00FF"/>
		<stop  offset="1" style="stop-color:#00DBDE"/>
	</linearGradient>
	<path class="st4" d="M63.5,63.5v233h233v-233H63.5z M185.6,196c0,3.1-2.5,5.6-5.6,5.6c-3.1,0-5.6-2.5-5.6-5.6v0
		c0-3.1,2.5-5.6,5.6-5.6C183.1,190.4,185.6,192.9,185.6,196L185.6,196z M251.7,180v71.7v0l0,0l-35.8-35.8L180,180l-35.8,35.8
		l-35.8,35.8l0,0V180v-71.7l35.8,35.8l6.7,6.7l-42.6,100.8l35.8-71.7l11.9-23.9l0.5-1l23.4-46.8l23.4,46.8l0.5,1l11.9,23.9
		l35.8,71.7l-42.6-100.8l6.7-6.7l35.8-35.8V180z"/>
</g>
</svg>
