<?xml version="1.0" encoding="utf-8"?>
<!-- Generator: Adobe Illustrator 23.0.2, SVG Export Plug-In . SVG Version: 6.00 Build 0)  -->
<svg version="1.1" id="Layer_1" xmlns="http://www.w3.org/2000/svg" xmlns:xlink="http://www.w3.org/1999/xlink" x="0px" y="0px"
	 viewBox="0 0 192 192" style="enable-background:new 0 0 192 192;" xml:space="preserve">
<style type="text/css">
	.st0{fill:#263238;}
	.st1{fill:#FAFAFA;}
</style>
<g>
	<rect x="0" y="0.05" class="st0" width="192" height="192"/>
</g>
<rect x="71.28" y="75.46" class="st1" width="49.44" height="18.54"/>
<path class="st1" d="M95.91,50.52l6.17-6.17c3.41-3.41,3.41-8.94,0-12.35c0,0,0,0,0,0l-6.17,6.17C92.5,41.58,92.5,47.11,95.91,50.52
	C95.91,50.52,95.91,50.52,95.91,50.52z"/>
<polygon class="st1" points="98.91,56.52 96.91,56.52 96.91,54.52 96.91,52.52 94.91,52.52 94.91,54.52 94.91,56.52 92.91,56.52 
	92.91,73.46 98.91,73.46 "/>
<g>
	<polygon class="st1" points="160,136 160,128 32,128 32,136 92,136 92,152 68,152 68,160 124,160 124,152 100,152 100,136 	"/>
	<rect x="56" y="96" class="st1" width="80" height="30"/>
</g>
</svg>
