<?xml version="1.0" encoding="utf-8"?>
<!-- Generator: Adobe Illustrator 23.0.2, SVG Export Plug-In . SVG Version: 6.00 Build 0)  -->
<svg version="1.1" id="Layer_1" xmlns="http://www.w3.org/2000/svg" xmlns:xlink="http://www.w3.org/1999/xlink" x="0px" y="0px"
	 viewBox="0 0 363.1 426.3" style="enable-background:new 0 0 363.1 426.3;" xml:space="preserve">
<style type="text/css">
	.st0{fill:#A0A60F;}
	.st1{fill:#FFFFFF;}
	.st2{fill:#075EA6;}
	.st3{fill:#F4413B;}
	.st4{fill:#2294F2;}
	.st5{fill:#B8BF08;}
</style>
<g>
	<path class="st0" d="M181.6,142.6v1c38.5,0,73.4,15.7,98.6,41c25.2,25.3,40.9,60.3,40.9,99c0,38.7-15.6,73.7-40.9,99
		c-25.2,25.3-60.1,41-98.6,41c-38.5,0-73.4-15.7-98.6-41c-25.2-25.3-40.9-60.3-40.9-99c0-38.7,15.6-73.7,40.9-99
		c25.2-25.3,60.1-41,98.6-41V142.6v-1c-78.2,0-141.5,63.6-141.5,142c0,78.4,63.3,142,141.5,142c78.2,0,141.5-63.6,141.5-142
		c0-78.4-63.3-142-141.5-142V142.6z"/>
	<ellipse class="st1" cx="303.3" cy="213.1" rx="18.8" ry="18.9"/>
	<path class="st2" d="M303.3,194.2v1c4.9,0,9.4,2,12.6,5.2c3.2,3.2,5.2,7.7,5.2,12.7c0,4.9-2,9.4-5.2,12.7
		c-3.2,3.2-7.7,5.2-12.6,5.2c-4.9,0-9.4-2-12.6-5.2c-3.2-3.2-5.2-7.7-5.2-12.7c0-4.9,2-9.4,5.2-12.7c3.2-3.2,7.7-5.2,12.6-5.2V194.2
		v-1c-10.9,0-19.8,8.9-19.8,19.9c0,11,8.9,19.9,19.8,19.9c10.9,0,19.8-8.9,19.8-19.9c0-11-8.9-19.9-19.8-19.9V194.2z"/>
	<path class="st0" d="M59.8,161.5v1c13.9,0,26.5,5.7,35.6,14.8c9.1,9.2,14.8,21.8,14.8,35.8c0,14-5.6,26.6-14.8,35.8
		c-9.1,9.2-21.7,14.8-35.6,14.8c-13.9,0-26.5-5.7-35.6-14.8c-9.1-9.2-14.8-21.8-14.8-35.8c0-14,5.6-26.6,14.8-35.8
		c9.1-9.2,21.7-14.8,35.6-14.8V161.5v-1c-28.9,0-52.4,23.6-52.4,52.6c0,29,23.5,52.6,52.4,52.6c28.9,0,52.4-23.6,52.4-52.6
		c0-29-23.5-52.6-52.4-52.6V161.5z"/>
	<path class="st0" d="M303.3,161.5v1c13.9,0,26.6,5.7,35.7,14.8c9.1,9.2,14.8,21.8,14.8,35.8c0,14-5.7,26.6-14.8,35.8
		c-9.1,9.2-21.8,14.8-35.7,14.8c-13.9,0-26.6-5.7-35.7-14.8c-9.1-9.2-14.8-21.8-14.8-35.8c0-14,5.7-26.6,14.8-35.8
		c9.1-9.2,21.8-14.8,35.7-14.8V161.5v-1c-29,0-52.5,23.6-52.5,52.6c0,29,23.5,52.6,52.5,52.6c29,0,52.5-23.6,52.5-52.6
		c0-29-23.5-52.6-52.5-52.6V161.5z"/>
	<path class="st3" d="M181.6,1.6v1c19.1,0,36.5,7.8,49,20.4c12.5,12.6,20.3,29.9,20.3,49.1c0,19.2-7.8,36.6-20.3,49.1
		c-12.5,12.6-29.9,20.4-49,20.4c-19.1,0-36.5-7.8-49-20.4c-12.5-12.6-20.3-29.9-20.3-49.1c0-19.2,7.8-36.6,20.3-49.1
		c12.5-12.6,29.9-20.4,49-20.4V1.6v-1c-39.4,0-71.3,32-71.3,71.5c0,39.5,31.9,71.5,71.3,71.5c39.4,0,71.3-32,71.3-71.5
		c0-39.5-31.9-71.5-71.3-71.5V1.6z"/>
	<path class="st3" d="M181.6,283.7v1c19.1,0,36.5,7.8,49,20.4c12.5,12.6,20.3,29.9,20.3,49.1c0,19.2-7.8,36.6-20.3,49.1
		c-12.5,12.6-29.9,20.4-49,20.4c-19.1,0-36.5-7.8-49-20.4c-12.5-12.6-20.3-29.9-20.3-49.1c0-19.2,7.8-36.6,20.3-49.1
		c12.5-12.6,29.9-20.4,49-20.4V283.7v-1c-39.4,0-71.3,32-71.3,71.5c0,39.5,31.9,71.5,71.3,71.5c39.4,0,71.3-32,71.3-71.5
		c0-39.5-31.9-71.5-71.3-71.5V283.7z"/>
	<path class="st4" d="M181.6,1.6v1c38.5,0,73.4,15.7,98.6,41c25.2,25.3,40.9,60.3,40.9,99c0,38.7-15.6,73.7-40.9,99
		c-25.2,25.3-60.1,41-98.6,41c-38.5,0-73.4-15.7-98.6-41c-25.2-25.3-40.9-60.3-40.9-99c0-38.7,15.6-73.7,40.9-99
		c25.2-25.3,60.1-41,98.6-41V1.6v-1c-78.2,0-141.5,63.6-141.5,142c0,78.4,63.3,142,141.5,142c78.2,0,141.5-63.6,141.5-142
		c0-78.4-63.3-142-141.5-142V1.6z"/>
	<path class="st2" d="M59.8,194.2v1c4.9,0,9.4,2,12.6,5.2c3.2,3.2,5.2,7.7,5.2,12.7c0,4.9-2,9.4-5.2,12.7c-3.2,3.2-7.7,5.2-12.6,5.2
		c-4.9,0-9.4-2-12.6-5.2C44,222.5,42,218,42,213.1c0-4.9,2-9.4,5.2-12.7c3.2-3.2,7.7-5.2,12.6-5.2V194.2v-1
		c-10.9,0-19.8,8.9-19.8,19.9c0,11,8.9,19.9,19.8,19.9c10.9,0,19.8-8.9,19.8-19.9c0-11-8.9-19.9-19.8-19.9V194.2z"/>
	<path class="st4" d="M181.6,142.6c67.2,0,121.7,70.5,121.7,70.5s-54.5,70.5-121.7,70.5c-67.2,0-121.8-70.5-121.8-70.5
		S114.3,142.6,181.6,142.6z"/>
	<path class="st2" d="M181.6,142.6v1c16.6,0,32.5,4.4,47,10.9c21.7,9.8,40.2,24.6,53.3,37c6.5,6.2,11.7,11.7,15.3,15.7
		c1.8,2,3.1,3.6,4,4.7c0.5,0.6,0.8,1,1,1.3c0.1,0.1,0.2,0.3,0.3,0.3l0.1,0.1l0.8-0.6l-0.8-0.6c0,0,0,0.1-0.2,0.2
		c-1.6,2-15.7,19.5-37.4,36.5c-21.7,17-51.1,33.4-83.3,33.4c-16.6,0-32.5-4.4-47-10.9c-21.7-9.8-40.2-24.7-53.3-37
		c-6.5-6.2-11.7-11.7-15.3-15.7c-1.8-2-3.1-3.6-4.1-4.7c-0.5-0.6-0.8-1-1-1.3c-0.1-0.1-0.2-0.3-0.3-0.3l-0.1-0.1l-0.8,0.6l0.8,0.6
		c0,0,0-0.1,0.2-0.2c1.6-2,15.7-19.5,37.4-36.5c21.8-17,51.2-33.4,83.4-33.4V142.6v-1c-34,0-64.6,17.8-86.8,35.5
		C72.7,194.8,59,212.4,59,212.5l-0.5,0.6l0.5,0.6c0,0,13.7,17.7,35.9,35.4c11.1,8.9,24.3,17.7,38.9,24.4
		c14.7,6.7,30.8,11.1,47.8,11.1c17,0,33.1-4.5,47.8-11.1c44-20,74.7-59.7,74.7-59.8l0.5-0.6l-0.5-0.6c0,0-13.7-17.7-35.8-35.4
		c-22.1-17.7-52.7-35.5-86.7-35.5V142.6z"/>
	<ellipse class="st2" cx="181.6" cy="213.1" rx="70.3" ry="70.5"/>
	<ellipse class="st1" cx="181.6" cy="213.1" rx="51.5" ry="51.6"/>
	<ellipse class="st3" cx="181.6" cy="213.1" rx="31.8" ry="31.9"/>
	<path d="M224.1,363.2v-15v-15v-15h-15v15v15h-15v-15h-15h-15h-14.9h-15v0.2L110.7,357L90,336.2l-10.6,10.6l20.6,20.7l10.6,10.6
		l29.8-29.9h8.6v30.1h15h30v-15h15v15h15h30v-15L224.1,363.2L224.1,363.2z M164.1,363.2v-15h15v15H164.1z"/>
	<polygon points="253.7,318.1 253.7,333.2 268.7,333.2 268.7,378.2 283.7,378.2 283.7,333.2 283.7,333.1 283.7,318.1 	"/>
	<path class="st0" d="M181.6,109c-20.3,0-36.8-16.6-36.8-36.9c0-20.3,16.5-36.9,36.8-36.9s36.8,16.6,36.8,36.9
		C218.4,92.4,201.8,109,181.6,109z M181.6,36.1c-19.8,0-35.9,16.2-35.9,36c0,19.8,16.1,36,35.9,36s35.8-16.2,35.8-36
		C217.4,52.3,201.3,36.1,181.6,36.1z"/>
	<polygon class="st0" points="139.6,72.1 142.5,73.6 145.4,75 145.4,72.1 145.4,69.2 142.5,70.7 	"/>
	<polygon class="st0" points="217.7,69.2 217.7,72.1 217.7,75 220.6,73.6 223.5,72.1 220.6,70.7 	"/>
	<polygon class="st0" points="184.5,35.9 183,32.9 181.6,30 180.1,32.9 178.6,35.9 181.6,35.9 	"/>
	<polygon class="st0" points="178.6,108.4 180.1,111.3 181.6,114.2 183,111.3 184.5,108.4 181.6,108.4 	"/>
	<path class="st5" d="M151,41.5v61.3h61.1V41.5H151z M183.1,76.3c0,0.8-0.7,1.5-1.5,1.5c-0.8,0-1.5-0.7-1.5-1.5
		c0-0.8,0.7-1.5,1.5-1.5C182.4,74.8,183.1,75.5,183.1,76.3z M200.4,72.1V91l-9.4-9.4l-9.4-9.5l-9.4,9.4l-9.4,9.4V72.1V53.2l9.4,9.4
		l1.7,1.7l-11.2,26.6l9.4-18.9l3.2-6.3l0.1-0.2l6.1-12.3l6.1,12.3l0.2,0.2L191,72l9.4,18.9l-11.2-26.6l1.7-1.7l9.4-9.4L200.4,72.1z"
		/>
	<polygon points="346.5,220.6 346.5,205.6 346.5,205.5 317,205.5 317,190.9 331.9,190.9 331.9,175.8 316.9,175.8 316.9,175.9 
		302,175.9 302,205.5 302,220.6 331.5,220.6 331.5,235.8 302,235.8 302,250.8 331.5,250.8 346.5,250.8 346.5,235.6 361.5,235.6 
		361.5,220.6 	"/>
	<path d="M287,250.8L287,250.8v-45.2h-14.9V176h15v-15h-15h-15v15v14.5h-16.5v-11.8v-3.1v-15.1h-15v15.1v3.1v11.8v15v30.2h-14.9v-30
		h-9.5h-5.5v-7.3v-22.8h-15v0.1h-29.9v15v15h-14.9v-15h-15h-30v15v0.1h-15h-0.1v0.1l-10.5,10.5l-10.6-10.6l0.1-0.1l-10.6-10.6
		l-0.1,0.1l-10.6,10.6L23,216.3l-10.6-10.6L1.5,216.3l21.2,21.3L33.3,227l10.5-10.5l10.6,10.6L65,237.7l16.8-16.9h8.9v15h15h29.9
		v-15h14.9v15h15v-15h29.9v-0.1h0.1v15v15h29.9v0.1v15h15v-15v-0.1v-45.3H257v0.1h14.9v46.1h0.1v14.2h15h15v-15H287z M120.6,220.7
		h-14.9v-15h14.9V220.7z M165.6,190.7L165.6,190.7h14.9v15h-14.9V190.7z"/>
</g>
</svg>
